<svg width="36" height="37" viewBox="0 0 36 37" fill="none" xmlns="http://www.w3.org/2000/svg">
<path fill-rule="evenodd" clip-rule="evenodd" d="M27.7774 17.2514C27.8989 17.2514 27.998 17.3505 27.998 17.4719V26.6552H22.6446V17.4719C22.6446 17.3505 22.7437 17.2514 22.8641 17.2514H27.7774ZM35.678 11.3643L31.3154 8.10012V2.37498H27.5271V5.26631L21.5207 0.77377C21.0434 0.416881 20.4117 0.416881 19.9344 0.77377L5.77708 11.3643C5.49477 11.5753 5.38397 11.929 5.49477 12.2635C5.60663 12.5991 5.90706 12.8153 6.25968 12.8153H8.96139L20.4202 4.24359C20.6088 4.1019 20.8644 4.11042 21.0413 4.24891L32.4937 12.8153H35.1954C35.548 12.8153 35.8485 12.5991 35.9593 12.2635C36.0711 11.929 35.9603 11.5753 35.678 11.3643ZM35.1112 27.6832H18.5686C18.4877 27.826 18.3854 27.9602 18.2639 28.0817L16.2153 30.1303H35.1294C35.5235 30.1303 35.8453 29.8086 35.8453 29.4144V28.4172C35.8453 28.0124 35.5161 27.6832 35.1112 27.6832ZM22.1354 34.3352H9.11586C8.39463 34.3352 7.80443 34.9254 7.80443 35.6466V36.1239C7.80443 36.3199 7.9653 36.4808 8.16132 36.4808H23.0899C23.286 36.4808 23.4468 36.3199 23.4468 36.1239V35.6466C23.4468 34.9254 22.8566 34.3352 22.1354 34.3352ZM10.1152 32.8309V33.3072H21.1361V32.8309C21.1361 32.2663 20.6737 31.804 20.1091 31.804H11.1421C10.5775 31.804 10.1152 32.2663 10.1152 32.8309ZM12.4536 28.332L15.6975 25.0891C13.9738 23.9897 12.5111 22.528 11.4127 20.8043L8.16878 24.0472C8.71103 24.3934 9.22772 24.7748 9.71459 25.1893L0.309755 33.9314C0.116929 34.1115 0.0157213 34.3363 0.0103944 34.6005C0.00613332 34.8647 0.0988177 35.0937 0.285252 35.2802L1.22062 36.2155C1.40812 36.403 1.63717 36.4947 1.90031 36.4904C2.16451 36.4851 2.39037 36.3849 2.57041 36.191L11.3126 26.7873C11.727 27.2741 12.1084 27.7908 12.4536 28.332ZM9.14569 18.9645L6.32893 21.7812C6.00187 22.1083 6.00187 22.6442 6.32893 22.9712L7.05976 23.7031L11.0676 19.6953L10.3367 18.9645C10.0086 18.6363 9.47382 18.6363 9.14569 18.9645ZM17.5374 26.1651L16.8066 25.4343L12.7987 29.441L13.5296 30.1729C13.8577 30.5 14.3925 30.5 14.7196 30.1729L17.5374 27.3551C17.8644 27.028 17.8644 26.4922 17.5374 26.1651ZM29.026 26.6552V17.4719C29.026 16.7837 28.4657 16.2233 27.7774 16.2233H22.8641C22.1759 16.2233 21.6166 16.7837 21.6166 17.4719V26.6552H18.8073C18.7817 26.212 18.6017 25.7752 18.2639 25.4385L17.4905 24.664C17.1592 24.3338 16.7096 24.1921 16.2782 24.24C14.6599 23.2141 13.2877 21.842 12.2618 20.2237C12.3098 19.7912 12.1681 19.3416 11.8378 19.0113L11.0633 18.2368C10.8012 17.9748 10.4784 17.8064 10.1397 17.7329V13.2127L20.7281 5.29295L31.3154 13.2127V26.6552H29.026ZM19.7906 15.892C19.7906 15.2603 19.2771 14.7457 18.6464 14.7457H13.5743C12.9426 14.7457 12.4291 15.2603 12.4291 15.892V17.6956C12.4291 18.3274 12.9426 18.8409 13.5743 18.8409H18.6464C19.2771 18.8409 19.7906 18.3274 19.7906 17.6956V15.892ZM18.6464 15.7748H13.5743C13.5104 15.7748 13.4571 15.8281 13.4571 15.892V17.6956C13.4571 17.7585 13.5104 17.8118 13.5743 17.8118H18.6464C18.7093 17.8118 18.7625 17.7585 18.7625 17.6956V15.892C18.7625 15.8281 18.7093 15.7748 18.6464 15.7748Z" fill="#F47920"/>
</svg>
