<svg width="36" height="36" viewBox="0 0 36 36" fill="none" xmlns="http://www.w3.org/2000/svg">
<path d="M7.55233 11.3276C7.55233 11.4661 7.53848 11.6025 7.51184 11.7378C7.48415 11.872 7.44473 12.0041 7.39253 12.1309C7.33926 12.2577 7.27534 12.3791 7.19863 12.4931C7.12193 12.6082 7.03457 12.7136 6.93763 12.8117C6.83962 12.9086 6.73415 12.996 6.61909 13.0727C6.5051 13.1494 6.38365 13.2133 6.25688 13.2665C6.12903 13.3188 5.998 13.3582 5.86377 13.3859C5.72847 13.4125 5.5921 13.4264 5.45361 13.4264C5.31618 13.4264 5.17982 13.4125 5.04452 13.3859C4.90922 13.3582 4.77818 13.3188 4.65141 13.2665C4.52357 13.2133 4.40319 13.1494 4.28813 13.0727C4.17414 12.996 4.0676 12.9086 3.97066 12.8117C3.87371 12.7136 3.78635 12.6082 3.70965 12.4931C3.63295 12.3791 3.56902 12.2577 3.51576 12.1309C3.46356 12.0041 3.42307 11.872 3.39644 11.7378C3.36981 11.6025 3.35596 11.4661 3.35596 11.3276C3.35596 11.1902 3.36981 11.0538 3.39644 10.9185C3.42307 10.7832 3.46356 10.6522 3.51576 10.5254C3.56902 10.3976 3.63295 10.2772 3.70965 10.1622C3.78635 10.0482 3.87371 9.94163 3.97066 9.84468C4.0676 9.74774 4.17414 9.66038 4.28813 9.58367C4.40319 9.50697 4.52357 9.44305 4.65141 9.38978C4.77818 9.33758 4.90922 9.2971 5.04452 9.27046C5.17982 9.24383 5.31618 9.22998 5.45361 9.22998C5.5921 9.22998 5.72847 9.24383 5.86377 9.27046C5.998 9.2971 6.12903 9.33758 6.25688 9.38978C6.38365 9.44305 6.5051 9.50697 6.61909 9.58367C6.73415 9.66038 6.83962 9.74774 6.93763 9.84468C7.03457 9.94163 7.12193 10.0482 7.19863 10.1622C7.27534 10.2772 7.33926 10.3976 7.39253 10.5254C7.44473 10.6522 7.48415 10.7832 7.51184 10.9185C7.53848 11.0538 7.55233 11.1902 7.55233 11.3276Z" fill="#F47920"/>
<path d="M11.3276 15.1044C11.3276 15.1598 11.3169 15.213 11.2956 15.2642C11.2743 15.3164 11.2434 15.3611 11.2051 15.4005C11.1657 15.4399 11.1198 15.4708 11.0687 15.4921C11.0176 15.5124 10.9632 15.523 10.9078 15.523H8.39044C8.24769 15.5241 8.1337 15.4655 8.0506 15.3504L6.46857 13.1676C6.46857 13.1676 6.46751 13.1654 6.46644 13.1654C6.43661 13.1228 6.41424 13.0759 6.40146 13.0248C6.38867 12.9737 6.38548 12.9225 6.39187 12.8703C6.39826 12.8181 6.41424 12.7681 6.43874 12.7223C6.46431 12.6754 6.49627 12.636 6.53675 12.6019C6.57617 12.5678 6.62198 12.5422 6.67099 12.5252C6.72106 12.5081 6.77219 12.5007 6.8244 12.5028C6.87766 12.5049 6.92773 12.5156 6.97567 12.5369C7.02361 12.5582 7.06623 12.587 7.10351 12.6242C7.12056 12.6402 7.13547 12.6573 7.14826 12.6754L8.60458 14.6846H10.9078C10.9632 14.6846 11.0176 14.6953 11.0687 14.7166C11.1198 14.7379 11.1657 14.7688 11.2051 14.8071C11.2434 14.8465 11.2743 14.8924 11.2956 14.9435C11.3169 14.9946 11.3276 15.049 11.3276 15.1044Z" fill="#F47920"/>
<path d="M32.7251 11.3276C32.7251 11.4661 32.7123 11.6025 32.6846 11.7378C32.658 11.872 32.6186 12.0041 32.5653 12.1309C32.5131 12.2577 32.4481 12.3791 32.3714 12.4931C32.2958 12.6082 32.2084 12.7136 32.1115 12.8117C32.0134 12.9086 31.908 12.996 31.7929 13.0727C31.6789 13.1494 31.5575 13.2133 31.4307 13.2665C31.3029 13.3188 31.1718 13.3582 31.0365 13.3859C30.9023 13.4125 30.7649 13.4264 30.6274 13.4264C30.49 13.4264 30.3536 13.4125 30.2183 13.3859C30.083 13.3582 29.952 13.3188 29.8252 13.2665C29.6974 13.2133 29.577 13.1494 29.462 13.0727C29.348 12.996 29.2414 12.9086 29.1445 12.8117C29.0465 12.7136 28.9602 12.6082 28.8835 12.4931C28.8068 12.3791 28.7418 12.2577 28.6896 12.1309C28.6363 12.0041 28.5969 11.872 28.5703 11.7378C28.5436 11.6025 28.5298 11.4661 28.5298 11.3276C28.5298 11.1902 28.5436 11.0538 28.5703 10.9185C28.5969 10.7832 28.6363 10.6522 28.6896 10.5254C28.7418 10.3976 28.8068 10.2772 28.8835 10.1622C28.9602 10.0482 29.0465 9.94163 29.1445 9.84468C29.2414 9.74774 29.348 9.66038 29.462 9.58367C29.577 9.50697 29.6974 9.44305 29.8252 9.38978C29.952 9.33758 30.083 9.2971 30.2183 9.27046C30.3536 9.24383 30.49 9.22998 30.6274 9.22998C30.7649 9.22998 30.9023 9.24383 31.0365 9.27046C31.1718 9.2971 31.3029 9.33758 31.4307 9.38978C31.5575 9.44305 31.6789 9.50697 31.7929 9.58367C31.908 9.66038 32.0134 9.74774 32.1115 9.84468C32.2084 9.94163 32.2958 10.0482 32.3714 10.1622C32.4481 10.2772 32.5131 10.3976 32.5653 10.5254C32.6186 10.6522 32.658 10.7832 32.6846 10.9185C32.7123 11.0538 32.7251 11.1902 32.7251 11.3276Z" fill="#F47920"/>
<path d="M29.6145 13.1654C29.6134 13.1654 29.6134 13.1675 29.6123 13.1675L28.0303 15.3504C27.9472 15.4654 27.8332 15.524 27.6905 15.523H25.1731C25.1177 15.523 25.0644 15.5123 25.0133 15.491C24.9611 15.4697 24.9163 15.4399 24.8769 15.4004C24.8375 15.361 24.8077 15.3163 24.7864 15.2641C24.765 15.2129 24.7544 15.1597 24.7544 15.1043C24.7544 15.0489 24.765 14.9945 24.7864 14.9434C24.8077 14.8923 24.8375 14.8465 24.8769 14.8081C24.9163 14.7687 24.9611 14.7378 25.0133 14.7165C25.0644 14.6952 25.1177 14.6845 25.1731 14.6845H27.4774L28.9327 12.6753C28.9657 12.6306 29.0051 12.5933 29.053 12.5645C29.0999 12.5357 29.151 12.5176 29.2064 12.508C29.2608 12.4995 29.3151 12.5017 29.3694 12.5144C29.4238 12.5272 29.4728 12.5496 29.5186 12.5816C29.5633 12.6146 29.6006 12.654 29.6294 12.7009C29.6581 12.7477 29.6773 12.7989 29.6869 12.8532C29.6954 12.9086 29.6933 12.9629 29.6816 13.0162C29.6688 13.0705 29.6464 13.1195 29.6145 13.1654Z" fill="#F47920"/>
<path d="M32.7251 24.7544C32.7251 24.8918 32.7123 25.0282 32.6846 25.1635C32.658 25.2988 32.6186 25.4298 32.5653 25.5566C32.5131 25.6844 32.4481 25.8048 32.3714 25.9199C32.2958 26.0339 32.2084 26.1404 32.1115 26.2373C32.0134 26.3354 31.908 26.4216 31.7929 26.4984C31.6789 26.5751 31.5575 26.64 31.4307 26.6922C31.3029 26.7455 31.1718 26.7849 31.0365 26.8116C30.9023 26.8382 30.7649 26.852 30.6274 26.852C30.49 26.852 30.3536 26.8382 30.2183 26.8116C30.083 26.7849 29.952 26.7455 29.8252 26.6922C29.6974 26.64 29.577 26.5751 29.462 26.4984C29.348 26.4216 29.2414 26.3354 29.1445 26.2373C29.0465 26.1404 28.9602 26.0339 28.8835 25.9199C28.8068 25.8048 28.7418 25.6844 28.6896 25.5566C28.6363 25.4298 28.5969 25.2988 28.5703 25.1635C28.5436 25.0282 28.5298 24.8918 28.5298 24.7544C28.5298 24.617 28.5436 24.4806 28.5703 24.3453C28.5969 24.21 28.6363 24.079 28.6896 23.9511C28.7418 23.8244 28.8068 23.7029 28.8835 23.5889C28.9602 23.4739 29.0465 23.3684 29.1445 23.2714C29.2414 23.1734 29.348 23.0861 29.462 23.0104C29.577 22.9337 29.6974 22.8687 29.8252 22.8165C29.952 22.7633 30.083 22.7239 30.2183 22.6972C30.3536 22.6695 30.49 22.6567 30.6274 22.6567C30.7649 22.6567 30.9023 22.6695 31.0365 22.6972C31.1718 22.7239 31.3029 22.7633 31.4307 22.8165C31.5575 22.8687 31.6789 22.9337 31.7929 23.0104C31.908 23.0861 32.0134 23.1734 32.1115 23.2714C32.2084 23.3684 32.2958 23.4739 32.3714 23.5889C32.4481 23.7029 32.5131 23.8244 32.5653 23.9511C32.6186 24.079 32.658 24.21 32.6846 24.3453C32.7123 24.4806 32.7251 24.617 32.7251 24.7544Z" fill="#F47920"/>
<path d="M29.5182 23.5005C29.4351 23.5612 29.3424 23.5868 29.2401 23.5793C29.1379 23.5708 29.0494 23.5303 28.977 23.4589C28.96 23.443 28.945 23.4259 28.9323 23.4067L27.477 21.3975H25.1727C25.1173 21.3975 25.064 21.3869 25.0118 21.3655C24.9607 21.3442 24.9159 21.3144 24.8765 21.275C24.8371 21.2356 24.8062 21.1898 24.7849 21.1386C24.7636 21.0875 24.7529 21.0342 24.7529 20.9778C24.7529 20.9224 24.7636 20.8691 24.7849 20.818C24.8062 20.7658 24.8371 20.721 24.8765 20.6816C24.9159 20.6422 24.9607 20.6123 25.0118 20.591C25.064 20.5697 25.1173 20.5591 25.1727 20.5591H27.6901C27.8328 20.5591 27.9468 20.6166 28.0299 20.7317L29.6119 22.9145C29.613 22.9145 29.613 22.9167 29.6141 22.9167C29.646 22.9625 29.6684 23.0115 29.6812 23.0658C29.6929 23.1202 29.695 23.1745 29.6865 23.2288C29.6769 23.2832 29.6578 23.3343 29.629 23.3812C29.6002 23.428 29.5629 23.4685 29.5182 23.5005Z" fill="#F47920"/>
<path d="M7.55233 24.7544C7.55233 24.8918 7.53848 25.0282 7.51184 25.1635C7.48415 25.2988 7.44473 25.4298 7.39253 25.5566C7.33926 25.6844 7.27534 25.8048 7.19863 25.9199C7.12193 26.0339 7.03457 26.1404 6.93763 26.2373C6.83962 26.3354 6.73415 26.4216 6.61909 26.4984C6.5051 26.5751 6.38365 26.64 6.25688 26.6922C6.12903 26.7455 5.998 26.7849 5.86377 26.8116C5.72847 26.8382 5.5921 26.852 5.45361 26.852C5.31618 26.852 5.17982 26.8382 5.04452 26.8116C4.90922 26.7849 4.77818 26.7455 4.65141 26.6922C4.52357 26.64 4.40319 26.5751 4.28813 26.4984C4.17414 26.4216 4.0676 26.3354 3.97066 26.2373C3.87371 26.1404 3.78635 26.0339 3.70965 25.9199C3.63295 25.8048 3.56902 25.6844 3.51576 25.5566C3.46356 25.4298 3.42307 25.2988 3.39644 25.1635C3.36981 25.0282 3.35596 24.8918 3.35596 24.7544C3.35596 24.617 3.36981 24.4806 3.39644 24.3453C3.42307 24.21 3.46356 24.079 3.51576 23.9511C3.56902 23.8244 3.63295 23.7029 3.70965 23.5889C3.78635 23.4739 3.87371 23.3684 3.97066 23.2714C4.0676 23.1734 4.17414 23.0861 4.28813 23.0104C4.40319 22.9337 4.52357 22.8687 4.65141 22.8165C4.77818 22.7633 4.90922 22.7239 5.04452 22.6972C5.17982 22.6695 5.31618 22.6567 5.45361 22.6567C5.5921 22.6567 5.72847 22.6695 5.86377 22.6972C5.998 22.7239 6.12903 22.7633 6.25688 22.8165C6.38365 22.8687 6.5051 22.9337 6.61909 23.0104C6.73415 23.0861 6.83962 23.1734 6.93763 23.2714C7.03457 23.3684 7.12193 23.4739 7.19863 23.5889C7.27534 23.7029 7.33926 23.8244 7.39253 23.9511C7.44473 24.079 7.48415 24.21 7.51184 24.3453C7.53848 24.4806 7.55233 24.617 7.55233 24.7544Z" fill="#F47920"/>
<path d="M11.3276 20.9778C11.3276 21.0332 11.3169 21.0875 11.2956 21.1386C11.2743 21.1898 11.2445 21.2356 11.2051 21.275C11.1657 21.3144 11.1198 21.3442 11.0687 21.3655C11.0176 21.3869 10.9632 21.3975 10.9078 21.3975H8.60458L7.14826 23.4067C7.13441 23.4259 7.11949 23.443 7.10351 23.4589C7.06623 23.4952 7.02361 23.525 6.97461 23.5452C6.92667 23.5665 6.8766 23.5783 6.8244 23.5793C6.77113 23.5814 6.71999 23.574 6.67099 23.5569C6.62092 23.5399 6.57617 23.5143 6.53569 23.4802C6.49627 23.4462 6.46325 23.4057 6.43874 23.3599C6.41424 23.313 6.39826 23.264 6.39187 23.2118C6.38548 23.1596 6.38867 23.1084 6.40146 23.0573C6.41424 23.0062 6.43661 22.9593 6.46644 22.9167C6.46751 22.9167 6.46857 22.9145 6.46857 22.9145L8.0506 20.7317C8.13476 20.6166 8.24769 20.5591 8.39044 20.5591H10.9078C10.9632 20.5591 11.0176 20.5697 11.0687 20.59C11.1198 20.6113 11.1657 20.6422 11.2051 20.6816C11.2434 20.721 11.2743 20.7658 11.2956 20.818C11.3169 20.8691 11.3276 20.9224 11.3276 20.9778Z" fill="#F47920"/>
<path d="M18.4601 4.19513V10.9078C18.4601 10.9643 18.4494 11.0176 18.4281 11.0687C18.4068 11.1209 18.377 11.1656 18.3376 11.2051C18.2982 11.2445 18.2524 11.2754 18.2012 11.2967C18.1501 11.318 18.0968 11.3286 18.0403 11.3286C17.985 11.3286 17.9317 11.318 17.8795 11.2967C17.8283 11.2754 17.7825 11.2445 17.7431 11.2051C17.7048 11.1656 17.6739 11.1209 17.6526 11.0687C17.6313 11.0176 17.6206 10.9643 17.6206 10.9078V4.19513C17.6206 4.18128 17.6217 4.16744 17.6227 4.15359C17.6281 4.10245 17.643 4.05238 17.6664 4.00657C17.6899 3.95969 17.7207 3.91921 17.7591 3.88406C17.7975 3.84996 17.8411 3.82227 17.8901 3.80415C17.9381 3.78498 17.9881 3.77539 18.0403 3.77539C18.0926 3.77539 18.1426 3.78498 18.1916 3.80415C18.2396 3.82227 18.2832 3.84996 18.3227 3.88406C18.361 3.91921 18.3919 3.95969 18.4153 4.00657C18.4388 4.05238 18.4526 4.10245 18.458 4.15359C18.459 4.16744 18.4601 4.18128 18.4601 4.19513Z" fill="#F47920"/>
<path d="M15.523 8.39156V10.909C15.523 10.9644 15.5123 11.0176 15.491 11.0688C15.4697 11.121 15.4399 11.1657 15.4005 11.2051C15.3611 11.2445 15.3163 11.2744 15.2641 11.2957C15.213 11.317 15.1597 11.3276 15.1043 11.3276C15.0479 11.3276 14.9946 11.317 14.9435 11.2957C14.8923 11.2744 14.8465 11.2445 14.8071 11.2051C14.7677 11.1657 14.7378 11.121 14.7165 11.0688C14.6952 11.0176 14.6846 10.9644 14.6846 10.909V8.6057L12.6743 7.14938C12.6295 7.11635 12.5923 7.07694 12.5635 7.03006C12.5337 6.98212 12.5145 6.93098 12.506 6.87665C12.4964 6.82125 12.4985 6.76692 12.5113 6.71259C12.5241 6.65826 12.5464 6.60925 12.5795 6.56344C12.6114 6.5187 12.6508 6.48141 12.6988 6.45158C12.7457 6.42282 12.7968 6.40364 12.8522 6.39512C12.9065 6.38553 12.9609 6.38766 13.0152 6.40045C13.0695 6.41323 13.1196 6.4356 13.1643 6.46756C13.1654 6.46863 13.1665 6.46969 13.1675 6.46969L15.3504 8.05172C15.4655 8.13588 15.523 8.24881 15.523 8.39156Z" fill="#F47920"/>
<path d="M23.459 7.10449C23.459 7.10343 23.459 7.10343 23.458 7.10449C23.442 7.12047 23.4249 7.13539 23.4068 7.14924L21.3976 8.60449V10.9078C21.3976 10.9642 21.3869 11.0175 21.3656 11.0686C21.3443 11.1208 21.3145 11.1656 21.2751 11.205C21.2357 11.2444 21.1899 11.2753 21.1387 11.2966C21.0865 11.3179 21.0332 11.3286 20.9778 11.3286C20.9225 11.3286 20.8681 11.3179 20.817 11.2966C20.7658 11.2753 20.72 11.2444 20.6806 11.205C20.6412 11.1656 20.6114 11.1208 20.5901 11.0686C20.5688 11.0175 20.5581 10.9642 20.5581 10.9078V8.39142C20.5581 8.24866 20.6167 8.13574 20.7318 8.05158L22.9136 6.46955C22.9146 6.46955 22.9157 6.46848 22.9168 6.46742C22.9594 6.43759 23.0063 6.41522 23.0574 6.40243C23.1085 6.38965 23.1597 6.38645 23.2119 6.39284C23.2641 6.39924 23.3131 6.41522 23.3599 6.43972C23.4058 6.46422 23.4462 6.49725 23.4803 6.53667C23.5144 6.57715 23.54 6.62189 23.557 6.67196C23.5741 6.72097 23.5815 6.77211 23.5794 6.82537C23.5783 6.87757 23.5666 6.92764 23.5453 6.97558C23.5251 7.02459 23.4952 7.0672 23.459 7.10449Z" fill="#F47920"/>
<path d="M18.4601 25.174V31.8868C18.4601 31.9421 18.4494 31.9954 18.4281 32.0476C18.4068 32.0988 18.377 32.1446 18.3376 32.184C18.2982 32.2234 18.2524 32.2532 18.2012 32.2745C18.1501 32.2958 18.0968 32.3065 18.0403 32.3065C17.985 32.3065 17.9317 32.2958 17.8795 32.2745C17.8283 32.2532 17.7825 32.2234 17.7431 32.184C17.7048 32.1446 17.6739 32.0988 17.6526 32.0476C17.6313 31.9954 17.6206 31.9421 17.6206 31.8868V25.174C17.6206 25.1187 17.6323 25.0643 17.6536 25.0132C17.6749 24.962 17.7048 24.9173 17.7442 24.8779C17.7836 24.8385 17.8283 24.8076 17.8805 24.7873C17.9317 24.766 17.985 24.7554 18.0403 24.7554C18.0957 24.7554 18.1501 24.766 18.2012 24.7873C18.2524 24.8076 18.2982 24.8385 18.3365 24.8779C18.3759 24.9173 18.4068 24.962 18.4281 25.0132C18.4494 25.0643 18.4601 25.1187 18.4601 25.174Z" fill="#F47920"/>
<path d="M23.5006 29.5196C23.4675 29.5643 23.4281 29.6016 23.3813 29.6304C23.3344 29.6591 23.2832 29.6783 23.2278 29.6868C23.1735 29.6964 23.1192 29.6943 23.0659 29.6815C23.0116 29.6698 22.9626 29.6474 22.9168 29.6144C22.9157 29.6144 22.9146 29.6133 22.9136 29.6133L20.7318 28.0302C20.6167 27.9471 20.5581 27.8342 20.5581 27.6914V25.174C20.5581 25.1187 20.5688 25.0643 20.5901 25.0132C20.6114 24.962 20.6423 24.9173 20.6817 24.8779C20.7211 24.8385 20.7658 24.8076 20.817 24.7873C20.8692 24.766 20.9225 24.7554 20.9778 24.7554C21.0332 24.7554 21.0865 24.766 21.1376 24.7873C21.1899 24.8076 21.2346 24.8385 21.274 24.8779C21.3134 24.9173 21.3443 24.962 21.3656 25.0132C21.3869 25.0643 21.3976 25.1187 21.3976 25.174V27.4773L23.4068 28.9336C23.4516 28.9667 23.4889 29.0061 23.5176 29.054C23.5474 29.1009 23.5666 29.152 23.5751 29.2074C23.5837 29.2618 23.5815 29.3161 23.5688 29.3704C23.556 29.4248 23.5325 29.4748 23.5006 29.5196Z" fill="#F47920"/>
<path d="M15.5231 25.1741V27.6915C15.5231 27.8343 15.4656 27.9472 15.3505 28.0303L13.1677 29.6134C13.1666 29.6134 13.1655 29.6145 13.1645 29.6145C13.1197 29.6475 13.0697 29.6699 13.0153 29.6827C12.9621 29.6954 12.9067 29.6965 12.8523 29.688C12.798 29.6784 12.7469 29.6592 12.6989 29.6305C12.652 29.6006 12.6126 29.5633 12.5796 29.5186C12.5476 29.4738 12.5242 29.4238 12.5125 29.3694C12.4997 29.3162 12.4976 29.2618 12.5061 29.2064C12.5157 29.1521 12.5338 29.101 12.5636 29.053C12.5924 29.0062 12.6297 28.9657 12.6744 28.9337L14.6847 27.4774V25.1741C14.6847 25.1177 14.6954 25.0644 14.7167 25.0133C14.738 24.9621 14.7678 24.9163 14.8072 24.8769C14.8466 24.8375 14.8924 24.8077 14.9436 24.7864C14.9947 24.765 15.048 24.7544 15.1045 24.7544C15.1598 24.7544 15.2131 24.765 15.2643 24.7864C15.3165 24.8077 15.3612 24.8375 15.4006 24.8769C15.44 24.9163 15.4699 24.9621 15.4912 25.0133C15.5125 25.0644 15.5231 25.1177 15.5231 25.1741Z" fill="#F47920"/>
<path d="M32.3051 18.0403C32.3051 18.0967 32.2945 18.15 32.2732 18.2011C32.2529 18.2533 32.222 18.2981 32.1826 18.3375C32.1432 18.3769 32.0984 18.4078 32.0462 18.4291C31.9951 18.4504 31.9418 18.4611 31.8864 18.4611H25.1727C25.1173 18.4611 25.064 18.4504 25.0118 18.4291C24.9607 18.4078 24.9159 18.3769 24.8765 18.3375C24.8371 18.2981 24.8062 18.2533 24.7849 18.2022C24.7636 18.15 24.7529 18.0967 24.7529 18.0413C24.7529 17.9859 24.7636 17.9316 24.7849 17.8805C24.8062 17.8293 24.8371 17.7835 24.8765 17.7441C24.9159 17.7047 24.9607 17.6748 25.0118 17.6535C25.064 17.6322 25.1173 17.6216 25.1727 17.6216H31.8864C31.9418 17.6216 31.9951 17.6322 32.0462 17.6535C32.0984 17.6748 32.1432 17.7047 32.1826 17.7441C32.222 17.7835 32.2519 17.8293 32.2732 17.8805C32.2945 17.9316 32.3051 17.9849 32.3051 18.0403Z" fill="#F47920"/>
<path d="M11.3276 18.0403C11.3276 18.0967 11.3169 18.15 11.2956 18.2011C11.2743 18.2533 11.2434 18.2981 11.2051 18.3375C11.1656 18.3769 11.1198 18.4078 11.0687 18.4291C11.0176 18.4504 10.9632 18.4611 10.9078 18.4611H4.19513C4.18022 18.4611 4.16637 18.46 4.15359 18.4589C4.10138 18.4536 4.05238 18.4387 4.0055 18.4153C3.95969 18.3918 3.91921 18.3609 3.88406 18.3226C3.8489 18.2842 3.82227 18.2405 3.80309 18.1915C3.78498 18.1436 3.77539 18.0935 3.77539 18.0413C3.77539 17.9891 3.78498 17.9391 3.80309 17.89C3.82227 17.8421 3.8489 17.7984 3.88406 17.759C3.91921 17.7207 3.95969 17.6898 4.0055 17.6663C4.05238 17.6429 4.10138 17.629 4.15359 17.6237C4.16637 17.6226 4.18022 17.6216 4.19513 17.6216H10.9078C10.9643 17.6216 11.0176 17.6322 11.0687 17.6535C11.1198 17.6748 11.1656 17.7047 11.2051 17.7441C11.2434 17.7835 11.2743 17.8293 11.2956 17.8805C11.3169 17.9316 11.3276 17.9849 11.3276 18.0403Z" fill="#F47920"/>
<mask id="mask0_805_2022" style="mask-type:luminance" maskUnits="userSpaceOnUse" x="15" y="0" width="6" height="5">
<path d="M15.7529 0H20.3893V4.44566H15.7529V0Z" fill="white"/>
</mask>
<g mask="url(#mask0_805_2022)">
<path d="M20.1382 2.09765C20.1382 2.23508 20.1254 2.37144 20.0988 2.50674C20.0711 2.64204 20.0316 2.77308 19.9794 2.90092C19.9262 3.02769 19.8612 3.14914 19.7855 3.26313C19.7088 3.37819 19.6215 3.48366 19.5245 3.58167C19.4265 3.67862 19.3211 3.76597 19.206 3.84161C19.092 3.91832 18.9706 3.9833 18.8438 4.0355C18.7159 4.08877 18.5849 4.12819 18.4496 4.15482C18.3154 4.18252 18.179 4.19531 18.0405 4.19531C17.9031 4.19531 17.7667 4.18252 17.6314 4.15482C17.4961 4.12819 17.3651 4.08877 17.2383 4.0355C17.1105 3.9833 16.9901 3.91832 16.875 3.84161C16.7611 3.76597 16.6545 3.67862 16.5576 3.58167C16.4596 3.48366 16.3733 3.37819 16.2966 3.26313C16.2199 3.14914 16.1559 3.02769 16.1027 2.90092C16.0505 2.77308 16.01 2.64204 15.9834 2.50674C15.9567 2.37144 15.9429 2.23508 15.9429 2.09765C15.9429 1.96022 15.9567 1.82386 15.9834 1.68856C16.01 1.55326 16.0505 1.42223 16.1027 1.29545C16.1559 1.16761 16.2199 1.04723 16.2966 0.932172C16.3733 0.81818 16.4596 0.711647 16.5576 0.614701C16.6545 0.516689 16.7611 0.430397 16.875 0.353693C16.9901 0.276988 17.1105 0.212002 17.2383 0.159801C17.3651 0.106534 17.4961 0.0671163 17.6314 0.0404829C17.7667 0.0138495 17.9031 0 18.0405 0C18.179 0 18.3154 0.0138495 18.4496 0.0404829C18.5849 0.0671163 18.7159 0.106534 18.8438 0.159801C18.9706 0.212002 19.092 0.276988 19.206 0.353693C19.3211 0.430397 19.4265 0.516689 19.5245 0.614701C19.6215 0.711647 19.7088 0.81818 19.7855 0.932172C19.8612 1.04723 19.9262 1.16761 19.9794 1.29545C20.0316 1.42223 20.0711 1.55326 20.0988 1.68856C20.1254 1.82386 20.1382 1.96022 20.1382 2.09765Z" fill="#F47920"/>
</g>
<path d="M13.4253 5.45459C13.4253 5.59202 13.4125 5.72838 13.3848 5.86368C13.3582 5.99897 13.3188 6.13001 13.2655 6.25679C13.2133 6.38463 13.1483 6.50501 13.0716 6.62007C12.9949 6.73406 12.9086 6.84059 12.8106 6.93754C12.7136 7.03555 12.6082 7.12184 12.4931 7.19855C12.3791 7.27525 12.2577 7.34024 12.1309 7.39244C12.0031 7.44464 11.872 7.48512 11.7367 7.51176C11.6014 7.53839 11.4651 7.55224 11.3276 7.55224C11.1902 7.55224 11.0538 7.53839 10.9185 7.51176C10.7832 7.48512 10.6522 7.44464 10.5244 7.39244C10.3976 7.34024 10.2772 7.27525 10.1622 7.19855C10.0482 7.12184 9.94163 7.03555 9.84468 6.93754C9.74667 6.84059 9.66038 6.73406 9.58367 6.62007C9.50697 6.50501 9.44198 6.38463 9.38978 6.25679C9.33651 6.13001 9.2971 5.99897 9.27046 5.86368C9.24276 5.72838 9.22998 5.59202 9.22998 5.45459C9.22998 5.31609 9.24276 5.17973 9.27046 5.0455C9.2971 4.9102 9.33651 4.77916 9.38978 4.65132C9.44198 4.52455 9.50697 4.4031 9.58367 4.28911C9.66038 4.17405 9.74667 4.06858 9.84468 3.97057C9.94163 3.87362 10.0482 3.78627 10.1622 3.70956C10.2772 3.63392 10.3976 3.56894 10.5244 3.51673C10.6522 3.46347 10.7832 3.42405 10.9185 3.39635C11.0538 3.36972 11.1902 3.35693 11.3276 3.35693C11.4651 3.35693 11.6014 3.36972 11.7367 3.39635C11.872 3.42405 12.0031 3.46347 12.1309 3.51673C12.2577 3.56894 12.3791 3.63392 12.4931 3.70956C12.6082 3.78627 12.7136 3.87362 12.8106 3.97057C12.9086 4.06858 12.9949 4.17405 13.0716 4.28911C13.1483 4.4031 13.2133 4.52455 13.2655 4.65132C13.3188 4.77916 13.3582 4.9102 13.3848 5.0455C13.4125 5.17973 13.4253 5.31609 13.4253 5.45459Z" fill="#F47920"/>
<path d="M26.8521 5.45459C26.8521 5.59202 26.8383 5.72838 26.8116 5.86368C26.785 5.99897 26.7445 6.13001 26.6923 6.25679C26.6391 6.38463 26.5751 6.50501 26.4984 6.62007C26.4217 6.73406 26.3344 6.84059 26.2374 6.93754C26.1394 7.03555 26.034 7.12184 25.92 7.19855C25.8049 7.27525 25.6845 7.34024 25.5567 7.39244C25.4299 7.44464 25.2978 7.48512 25.1636 7.51176C25.0283 7.53839 24.8919 7.55224 24.7545 7.55224C24.616 7.55224 24.4796 7.53839 24.3443 7.51176C24.2101 7.48512 24.078 7.44464 23.9512 7.39244C23.8244 7.34024 23.703 7.27525 23.589 7.19855C23.4739 7.12184 23.3685 7.03555 23.2705 6.93754C23.1735 6.84059 23.0862 6.73406 23.0095 6.62007C22.9327 6.50501 22.8688 6.38463 22.8156 6.25679C22.7634 6.13001 22.7229 5.99897 22.6962 5.86368C22.6696 5.72838 22.6558 5.59202 22.6558 5.45459C22.6558 5.31609 22.6696 5.17973 22.6962 5.0455C22.7229 4.9102 22.7634 4.77916 22.8156 4.65132C22.8688 4.52455 22.9327 4.4031 23.0095 4.28911C23.0862 4.17405 23.1735 4.06858 23.2705 3.97057C23.3685 3.87362 23.4739 3.78627 23.589 3.70956C23.703 3.63392 23.8244 3.56894 23.9512 3.51673C24.078 3.46347 24.2101 3.42405 24.3443 3.39635C24.4796 3.36972 24.616 3.35693 24.7545 3.35693C24.8919 3.35693 25.0283 3.36972 25.1636 3.39635C25.2978 3.42405 25.4299 3.46347 25.5567 3.51673C25.6845 3.56894 25.8049 3.63392 25.92 3.70956C26.034 3.78627 26.1394 3.87362 26.2374 3.97057C26.3344 4.06858 26.4217 4.17405 26.4984 4.28911C26.5751 4.4031 26.6391 4.52455 26.6923 4.65132C26.7445 4.77916 26.785 4.9102 26.8116 5.0455C26.8383 5.17973 26.8521 5.31609 26.8521 5.45459Z" fill="#F47920"/>
<mask id="mask1_805_2022" style="mask-type:luminance" maskUnits="userSpaceOnUse" x="15" y="31" width="6" height="5">
<path d="M15.7529 31.7183H20.3893V35.9999H15.7529V31.7183Z" fill="white"/>
</mask>
<g mask="url(#mask1_805_2022)">
<path d="M20.1382 33.9844C20.1382 34.1218 20.1254 34.2592 20.0988 34.3935C20.0711 34.5288 20.0316 34.6598 19.9794 34.7876C19.9262 34.9144 19.8612 35.0359 19.7855 35.1499C19.7088 35.2649 19.6215 35.3704 19.5245 35.4684C19.4265 35.5653 19.3211 35.6527 19.206 35.7283C19.092 35.805 18.9706 35.87 18.8438 35.9222C18.7159 35.9755 18.5849 36.0149 18.4496 36.0415C18.3154 36.0692 18.179 36.082 18.0405 36.082C17.9031 36.082 17.7667 36.0692 17.6314 36.0415C17.4961 36.0149 17.3651 35.9755 17.2383 35.9222C17.1105 35.87 16.9901 35.805 16.875 35.7283C16.7611 35.6527 16.6545 35.5653 16.5576 35.4684C16.4596 35.3704 16.3733 35.2649 16.2966 35.1499C16.2199 35.0359 16.1559 34.9144 16.1027 34.7876C16.0505 34.6598 16.01 34.5288 15.9834 34.3935C15.9567 34.2592 15.9429 34.1218 15.9429 33.9844C15.9429 33.8469 15.9567 33.7106 15.9834 33.5753C16.01 33.44 16.0505 33.3089 16.1027 33.1822C16.1559 33.0543 16.2199 32.9339 16.2966 32.8189C16.3733 32.7049 16.4596 32.5984 16.5576 32.5014C16.6545 32.4034 16.7611 32.3171 16.875 32.2404C16.9901 32.1637 17.1105 32.0987 17.2383 32.0465C17.3651 31.9933 17.4961 31.9538 17.6314 31.9272C17.7667 31.9006 17.9031 31.8867 18.0405 31.8867C18.179 31.8867 18.3154 31.9006 18.4496 31.9272C18.5849 31.9538 18.7159 31.9933 18.8438 32.0465C18.9706 32.0987 19.092 32.1637 19.206 32.2404C19.3211 32.3171 19.4265 32.4034 19.5245 32.5014C19.6215 32.5984 19.7088 32.7049 19.7855 32.8189C19.8612 32.9339 19.9262 33.0543 19.9794 33.1822C20.0316 33.3089 20.0711 33.44 20.0988 33.5753C20.1254 33.7106 20.1382 33.8469 20.1382 33.9844Z" fill="#F47920"/>
</g>
<path d="M26.8521 30.6285C26.8521 30.7659 26.8383 30.9023 26.8116 31.0376C26.785 31.1729 26.7445 31.3039 26.6923 31.4307C26.6391 31.5585 26.5751 31.6789 26.4984 31.794C26.4217 31.908 26.3344 32.0145 26.2374 32.1115C26.1394 32.2084 26.034 32.2958 25.92 32.3725C25.8049 32.4492 25.6845 32.5131 25.5567 32.5664C25.4299 32.6186 25.2978 32.659 25.1636 32.6857C25.0283 32.7123 24.8919 32.7262 24.7545 32.7262C24.616 32.7262 24.4796 32.7123 24.3443 32.6857C24.2101 32.659 24.078 32.6186 23.9512 32.5664C23.8244 32.5131 23.703 32.4492 23.589 32.3725C23.4739 32.2958 23.3685 32.2084 23.2705 32.1115C23.1735 32.0145 23.0862 31.908 23.0095 31.794C22.9327 31.6789 22.8688 31.5585 22.8156 31.4307C22.7634 31.3039 22.7229 31.1729 22.6962 31.0376C22.6696 30.9023 22.6558 30.7659 22.6558 30.6285C22.6558 30.49 22.6696 30.3536 22.6962 30.2183C22.7229 30.0841 22.7634 29.952 22.8156 29.8252C22.8688 29.6985 22.9327 29.577 23.0095 29.463C23.0862 29.348 23.1735 29.2425 23.2705 29.1445C23.3685 29.0475 23.4739 28.9602 23.589 28.8835C23.703 28.8068 23.8244 28.7429 23.9512 28.6896C24.078 28.6374 24.2101 28.5969 24.3443 28.5703C24.4796 28.5436 24.616 28.5298 24.7545 28.5298C24.8919 28.5298 25.0283 28.5436 25.1636 28.5703C25.2978 28.5969 25.4299 28.6374 25.5567 28.6896C25.6845 28.7429 25.8049 28.8068 25.92 28.8835C26.034 28.9602 26.1394 29.0475 26.2374 29.1445C26.3344 29.2425 26.4217 29.348 26.4984 29.463C26.5751 29.577 26.6391 29.6985 26.6923 29.8252C26.7445 29.952 26.785 30.0841 26.8116 30.2183C26.8383 30.3536 26.8521 30.49 26.8521 30.6285Z" fill="#F47920"/>
<path d="M13.4253 30.6285C13.4253 30.7659 13.4125 30.9023 13.3848 31.0376C13.3582 31.1729 13.3188 31.3039 13.2655 31.4307C13.2133 31.5585 13.1483 31.6789 13.0716 31.794C12.9949 31.908 12.9086 32.0145 12.8106 32.1115C12.7136 32.2084 12.6082 32.2958 12.4931 32.3725C12.3791 32.4492 12.2577 32.5131 12.1309 32.5664C12.0031 32.6186 11.872 32.659 11.7367 32.6857C11.6014 32.7123 11.4651 32.7262 11.3276 32.7262C11.1902 32.7262 11.0538 32.7123 10.9185 32.6857C10.7832 32.659 10.6522 32.6186 10.5244 32.5664C10.3976 32.5131 10.2772 32.4492 10.1622 32.3725C10.0482 32.2958 9.94163 32.2084 9.84468 32.1115C9.74667 32.0145 9.66038 31.908 9.58367 31.794C9.50697 31.6789 9.44198 31.5585 9.38978 31.4307C9.33651 31.3039 9.2971 31.1729 9.27046 31.0376C9.24276 30.9023 9.22998 30.7659 9.22998 30.6285C9.22998 30.49 9.24276 30.3536 9.27046 30.2183C9.2971 30.0841 9.33651 29.952 9.38978 29.8252C9.44198 29.6985 9.50697 29.577 9.58367 29.463C9.66038 29.348 9.74667 29.2425 9.84468 29.1445C9.94163 29.0475 10.0482 28.9602 10.1622 28.8835C10.2772 28.8068 10.3976 28.7429 10.5244 28.6896C10.6522 28.6374 10.7832 28.5969 10.9185 28.5703C11.0538 28.5436 11.1902 28.5298 11.3276 28.5298C11.4651 28.5298 11.6014 28.5436 11.7367 28.5703C11.872 28.5969 12.0031 28.6374 12.1309 28.6896C12.2577 28.7429 12.3791 28.8068 12.4931 28.8835C12.6082 28.9602 12.7136 29.0475 12.8106 29.1445C12.9086 29.2425 12.9949 29.348 13.0716 29.463C13.1483 29.577 13.2133 29.6985 13.2655 29.8252C13.3188 29.952 13.3582 30.0841 13.3848 30.2183C13.4125 30.3536 13.4253 30.49 13.4253 30.6285Z" fill="#F47920"/>
<mask id="mask2_805_2022" style="mask-type:luminance" maskUnits="userSpaceOnUse" x="31" y="15" width="5" height="6">
<path d="M31.8442 15.9004H36.0001V20.264H31.8442V15.9004Z" fill="white"/>
</mask>
<g mask="url(#mask2_805_2022)">
<path d="M36.082 18.042C36.082 18.1794 36.0682 18.3158 36.0415 18.4511C36.0149 18.5864 35.9755 18.7174 35.9222 18.8442C35.87 18.972 35.805 19.0924 35.7283 19.2075C35.6516 19.3215 35.5653 19.428 35.4673 19.5249C35.3704 19.6219 35.2638 19.7092 35.1499 19.7859C35.0348 19.8627 34.9144 19.9266 34.7866 19.9798C34.6598 20.032 34.5288 20.0725 34.3935 20.0992C34.2582 20.1258 34.1218 20.1396 33.9844 20.1396C33.8469 20.1396 33.7095 20.1258 33.5753 20.0992C33.44 20.0725 33.3089 20.032 33.1811 19.9798C33.0543 19.9266 32.9329 19.8627 32.8189 19.7859C32.7038 19.7092 32.5984 19.6219 32.5004 19.5249C32.4034 19.428 32.3161 19.3215 32.2404 19.2075C32.1637 19.0924 32.0987 18.972 32.0465 18.8442C31.9933 18.7174 31.9538 18.5864 31.9261 18.4511C31.8995 18.3158 31.8867 18.1794 31.8867 18.042C31.8867 17.9035 31.8995 17.7671 31.9261 17.6329C31.9538 17.4976 31.9933 17.3666 32.0465 17.2387C32.0987 17.1119 32.1637 16.9905 32.2404 16.8765C32.3161 16.7615 32.4034 16.656 32.5004 16.558C32.5984 16.461 32.7038 16.3737 32.8189 16.297C32.9329 16.2213 33.0543 16.1563 33.1811 16.1031C33.3089 16.0509 33.44 16.0115 33.5753 15.9838C33.7095 15.9571 33.8469 15.9443 33.9844 15.9443C34.1218 15.9443 34.2582 15.9571 34.3935 15.9838C34.5288 16.0115 34.6598 16.0509 34.7866 16.1031C34.9144 16.1563 35.0348 16.2213 35.1499 16.297C35.2638 16.3737 35.3704 16.461 35.4673 16.558C35.5653 16.656 35.6516 16.7615 35.7283 16.8765C35.805 16.9905 35.87 17.1119 35.9222 17.2387C35.9755 17.3666 36.0149 17.4976 36.0415 17.6329C36.0682 17.7671 36.082 17.9035 36.082 18.042Z" fill="#F47920"/>
</g>
<mask id="mask3_805_2022" style="mask-type:luminance" maskUnits="userSpaceOnUse" x="0" y="15" width="5" height="6">
<path d="M0 15.9004H4.29864V20.264H0V15.9004Z" fill="white"/>
</mask>
<g mask="url(#mask3_805_2022)">
<path d="M4.19531 18.042C4.19531 18.1794 4.18146 18.3158 4.15482 18.4511C4.12819 18.5864 4.08771 18.7174 4.0355 18.8442C3.9833 18.972 3.91832 19.0924 3.84161 19.2075C3.76491 19.3215 3.67862 19.428 3.5806 19.5249C3.48366 19.6219 3.37713 19.7092 3.26313 19.7859C3.14808 19.8627 3.02769 19.9266 2.89985 19.9798C2.77308 20.032 2.64204 20.0725 2.50674 20.0992C2.37144 20.1258 2.23508 20.1396 2.09765 20.1396C1.95916 20.1396 1.8228 20.1258 1.68856 20.0992C1.55326 20.0725 1.42223 20.032 1.29439 19.9798C1.16761 19.9266 1.04616 19.8627 0.932172 19.7859C0.817115 19.7092 0.711646 19.6219 0.613635 19.5249C0.516689 19.428 0.429332 19.3215 0.352627 19.2075C0.276988 19.0924 0.212002 18.972 0.159801 18.8442C0.106534 18.7174 0.0671165 18.5864 0.0394175 18.4511C0.0127841 18.3158 0 18.1794 0 18.042C0 17.9035 0.0127841 17.7671 0.0394175 17.6329C0.0671165 17.4976 0.106534 17.3666 0.159801 17.2387C0.212002 17.1119 0.276988 16.9905 0.352627 16.8765C0.429332 16.7615 0.516689 16.656 0.613635 16.558C0.711646 16.461 0.817115 16.3737 0.932172 16.297C1.04616 16.2213 1.16761 16.1563 1.29439 16.1031C1.42223 16.0509 1.55326 16.0115 1.68856 15.9838C1.8228 15.9571 1.95916 15.9443 2.09765 15.9443C2.23508 15.9443 2.37144 15.9571 2.50674 15.9838C2.64204 16.0115 2.77308 16.0509 2.89985 16.1031C3.02769 16.1563 3.14808 16.2213 3.26313 16.297C3.37713 16.3737 3.48366 16.461 3.5806 16.558C3.67862 16.656 3.76491 16.7615 3.84161 16.8765C3.91832 16.9905 3.9833 17.1119 4.0355 17.2387C4.08771 17.3666 4.12819 17.4976 4.15482 17.6329C4.18146 17.7671 4.19531 17.9035 4.19531 18.042Z" fill="#F47920"/>
</g>
<path d="M25.1731 12.2356V23.8467C25.1731 23.9341 25.1646 24.0204 25.1475 24.1056C25.1305 24.1909 25.106 24.2739 25.0719 24.3549C25.0389 24.4348 24.9984 24.5115 24.9494 24.584C24.9014 24.6564 24.846 24.7235 24.7842 24.7853C24.7225 24.8471 24.6564 24.9014 24.584 24.9504C24.5115 24.9984 24.4348 25.0399 24.3538 25.073C24.2739 25.106 24.1909 25.1315 24.1056 25.1486C24.0193 25.1656 23.933 25.1742 23.8467 25.1742H14.4696C14.1298 25.1742 13.84 25.0538 13.6003 24.8141L11.2694 22.4831C11.0286 22.2434 10.9082 21.9536 10.9082 21.6138V12.2367C10.9082 12.1493 10.9167 12.063 10.9338 11.9767C10.9508 11.8915 10.9764 11.8084 11.0094 11.7285C11.0435 11.6475 11.084 11.5708 11.133 11.4984C11.1809 11.426 11.2363 11.3588 11.2971 11.2971C11.3588 11.2353 11.426 11.1809 11.4984 11.1319C11.5708 11.084 11.6475 11.0424 11.7285 11.0094C11.8084 10.9764 11.8915 10.9508 11.9778 10.9338C12.063 10.9167 12.1493 10.9082 12.2367 10.9082H23.8467C23.933 10.9082 24.0193 10.9167 24.1056 10.9338C24.1909 10.9508 24.2739 10.9764 24.3538 11.0094C24.4348 11.0424 24.5115 11.084 24.584 11.1319C24.6564 11.1809 24.7235 11.2353 24.7842 11.2971C24.846 11.3588 24.9014 11.426 24.9494 11.4984C24.9984 11.5708 25.0389 11.6475 25.0719 11.7274C25.106 11.8084 25.1305 11.8915 25.1475 11.9767C25.1646 12.062 25.1731 12.1483 25.1731 12.2356Z" fill="#F47920"/>
<path d="M24.3879 12.8748V23.2075C24.3879 23.2853 24.3805 23.362 24.3656 23.4387C24.3507 23.5144 24.3283 23.5879 24.2984 23.6603C24.2686 23.7317 24.2324 23.7999 24.1887 23.8638C24.1461 23.9288 24.0971 23.9884 24.0428 24.0428C23.9874 24.0982 23.9277 24.1472 23.8638 24.1898C23.7988 24.2335 23.7306 24.2697 23.6592 24.2985C23.5879 24.3283 23.5133 24.3507 23.4377 24.3666C23.362 24.3815 23.2853 24.389 23.2075 24.389H14.8627C14.5602 24.389 14.3024 24.2825 14.0893 24.0683L12.014 21.9941C11.7999 21.78 11.6934 21.5222 11.6934 21.2207V12.8748C11.6934 12.7971 11.7008 12.7203 11.7168 12.6447C11.7317 12.568 11.7541 12.4945 11.7839 12.4231C11.8137 12.3517 11.85 12.2836 11.8926 12.2186C11.9363 12.1547 11.9853 12.0939 12.0396 12.0396C12.095 11.9853 12.1547 11.9363 12.2186 11.8926C12.2836 11.85 12.3517 11.8127 12.4231 11.7839C12.4945 11.7541 12.568 11.7317 12.6447 11.7157C12.7203 11.7008 12.7971 11.6934 12.8748 11.6934H23.2075C23.2853 11.6934 23.362 11.7008 23.4377 11.7157C23.5133 11.7317 23.5879 11.7541 23.6592 11.7839C23.7306 11.8127 23.7988 11.85 23.8638 11.8926C23.9277 11.9352 23.9874 11.9842 24.0428 12.0396C24.0971 12.0939 24.1461 12.1536 24.1898 12.2186C24.2324 12.2825 24.2686 12.3507 24.2984 12.4221C24.3283 12.4945 24.3507 12.568 24.3656 12.6436C24.3805 12.7203 24.3879 12.7971 24.3879 12.8748Z" fill="#F47920"/>
<mask id="mask4_805_2022" style="mask-type:luminance" maskUnits="userSpaceOnUse" x="11" y="11" width="14" height="12">
<path d="M24.4803 11.5366H11.6621V22.7184H24.4803V11.5366Z" fill="white"/>
</mask>
<g mask="url(#mask4_805_2022)">
<mask id="mask5_805_2022" style="mask-type:luminance" maskUnits="userSpaceOnUse" x="11" y="11" width="14" height="12">
<path d="M11.6729 11.6348H24.3056V22.5662H11.6729V11.6348Z" fill="white"/>
</mask>
<g mask="url(#mask5_805_2022)">
<path d="M12.1866 21.7139V13.3681C12.1866 13.2903 12.1941 13.2136 12.209 13.138C12.2239 13.0613 12.2473 12.9877 12.2761 12.9164C12.3059 12.8439 12.3422 12.7757 12.3858 12.7118C12.4284 12.6468 12.4774 12.5872 12.5328 12.5328C12.5872 12.4774 12.6468 12.4284 12.7118 12.3858C12.7757 12.3422 12.8439 12.3059 12.9164 12.2761C12.9877 12.2463 13.0613 12.2239 13.138 12.209C13.2136 12.1941 13.2903 12.1866 13.3681 12.1866H23.7008C23.8958 12.1866 24.079 12.2324 24.2516 12.323C24.1493 12.1301 24.0044 11.9767 23.8169 11.8627C23.6294 11.7498 23.4259 11.6934 23.2075 11.6934H12.8748C12.7971 11.6934 12.7203 11.7008 12.6447 11.7157C12.568 11.7317 12.4945 11.7541 12.4231 11.7839C12.3517 11.8127 12.2836 11.85 12.2186 11.8926C12.1547 11.9363 12.095 11.9853 12.0396 12.0396C11.9853 12.095 11.9363 12.1547 11.8926 12.2186C11.85 12.2836 11.8137 12.3517 11.7839 12.4231C11.7541 12.4945 11.7317 12.568 11.7168 12.6447C11.7008 12.7203 11.6934 12.7971 11.6934 12.8748V21.2207C11.6934 21.5222 11.7999 21.78 12.014 21.9941L12.5062 22.4863C12.2931 22.2722 12.1866 22.0154 12.1866 21.7139Z" fill="#F47920"/>
</g>
</g>
</svg>
