<svg width="36" height="36" viewBox="0 0 36 36" fill="none" xmlns="http://www.w3.org/2000/svg">
<mask id="mask0_805_1246" style="mask-type:luminance" maskUnits="userSpaceOnUse" x="0" y="0" width="36" height="36">
<path d="M0 0.5H36V35.5H0V0.5Z" fill="white"/>
</mask>
<g mask="url(#mask0_805_1246)">
<path fill-rule="evenodd" clip-rule="evenodd" d="M2.65298 10.6879V6.00912L3.84743 6.31969V10.6879L5.12521 11.4036V15.6368C5.12521 15.8124 4.91687 15.9204 4.77104 15.8056L3.25021 14.6984L1.72937 15.8056C1.58354 15.9204 1.36826 15.8124 1.36826 15.6368V11.4036L2.65298 10.6879ZM10.5349 21.9833L6.00021 24.5354L9.35437 30.2944L10.1947 29.8218C10.3405 29.7475 10.5002 29.7273 10.646 29.7678L19.5558 32.0836C20.6808 32.3806 21.7433 32.2456 22.7363 31.6515C26.8335 29.2074 30.9238 26.7499 35.021 24.2991C35.646 23.9277 35.7224 22.9082 35.3544 22.3276C34.5419 21.0516 32.2849 22.1116 31.3474 22.6449L24.5766 26.4798C23.5141 27.0807 22.3822 27.2495 21.1669 27.0604C20.8891 27.0132 20.5488 26.9794 20.2849 26.9187C18.7641 26.6148 17.2849 26.149 15.7919 25.7641C15.4724 25.6764 15.2849 25.359 15.3683 25.0485C15.4516 24.7379 15.778 24.5556 16.0974 24.6366C17.5627 25.0215 19.0141 25.4806 20.5002 25.7776C21.2502 25.8654 21.8752 25.6359 22.0835 24.8729C22.278 24.1843 21.8266 23.5361 21.1599 23.3066C19.1252 22.9487 17.153 22.2533 15.6044 21.7065C15.0627 21.5174 14.5766 21.3486 14.1669 21.2203C12.8752 20.8085 11.6391 21.3621 10.5349 21.9833ZM18.4099 0.53362L2.2641 4.70607L18.4099 8.87853C18.5419 8.91229 18.6599 8.91229 18.7919 8.87853L34.9447 4.70607L18.7919 0.53362C18.6599 0.499861 18.5419 0.499861 18.4099 0.53362ZM7.43076 7.24465L18.1044 9.99928C18.4377 10.0871 18.771 10.0871 19.0974 9.99928L29.778 7.24465V14.2933C29.778 14.5431 29.5974 14.7524 29.3474 14.7929C16.6738 17.0614 20.5349 17.0614 7.85437 14.7929C7.60437 14.7524 7.43076 14.5431 7.43076 14.2933V7.24465ZM3.90298 23.2796L9.48632 32.8735C9.75715 33.3394 9.58354 33.9335 9.10437 34.1968L7.20854 35.2366C6.72937 35.4999 6.11826 35.3378 5.84743 34.872L0.264095 25.2848C0.000207111 24.8189 0.166873 24.2248 0.64604 23.9615L2.54187 22.915C3.02104 22.6517 3.63215 22.8205 3.90298 23.2796ZM2.61826 24.7176C2.25021 24.7717 1.99326 25.1092 2.04882 25.4671C2.10437 25.8249 2.44465 26.0747 2.81965 26.0274C3.18771 25.9734 3.44465 25.6359 3.3891 25.278C3.33354 24.9202 2.99326 24.6704 2.61826 24.7176Z" fill="#F47920"/>
</g>
</svg>
