<svg width="36" height="45" viewBox="0 0 36 45" fill="none" xmlns="http://www.w3.org/2000/svg">
    <mask id="mask0_805_2078" style="mask-type:luminance" maskUnits="userSpaceOnUse" x="0" y="0"
        width="36" height="23">
        <path d="M0 0.5H36V22.9334H0V0.5Z" fill="white" />
    </mask>
    <g mask="url(#mask0_805_2078)">
        <path
            d="M32.206 12.6457C32.3421 12.0936 32.4102 11.6106 32.4102 11.0585C32.4102 7.95305 29.8918 5.4687 26.8969 5.4687C26.2844 5.4687 25.7398 5.53771 25.1953 5.74474C24.1743 2.6393 21.3156 0.5 18.0485 0.5C14.7133 0.5 11.8546 2.70831 10.8336 5.81375C10.221 5.60672 9.54034 5.4687 8.85969 5.4687C5.18418 5.4687 2.46157 9.12622 3.55062 12.7147C2.8019 12.9908 2.05318 13.4048 1.50866 13.9569C0.555751 14.923 0.0112305 16.2342 0.0112305 17.6144C0.0112305 20.4438 2.32544 22.7902 5.11611 22.7902H30.9128C33.7034 22.7902 36.0177 20.5128 36.0177 17.6144C36.0177 15.2681 34.4522 13.2668 32.206 12.6457ZM2.8019 17.6144C2.8019 15.5441 5.38837 14.509 5.59257 15.8202C5.66063 16.1652 5.38837 16.5793 4.97998 16.5793C4.50353 16.6483 4.1632 17.0623 4.1632 17.5454C4.1632 18.0975 4.63966 18.5806 5.18418 18.5806C5.59257 18.5806 5.86483 18.8566 5.86483 19.2707C5.79676 20.7199 2.8019 19.9608 2.8019 17.6144ZM9.60841 9.74731C8.4513 9.05721 7.02193 10.3684 7.63452 11.6796C8.11098 12.7147 6.13709 13.5428 6.13709 11.0585C6.13709 8.85018 8.51937 7.539 10.2891 8.57414C11.0378 9.05721 10.3571 10.2304 9.60841 9.74731ZM22.2685 7.95305C21.9282 8.02206 21.5198 7.81503 21.4517 7.40098C20.703 3.74346 15.3939 3.74346 14.7133 7.46999C14.5091 8.36711 13.2159 8.09107 13.352 7.19395C14.3049 2.01821 21.724 1.9492 22.813 7.12494C22.813 7.46999 22.6088 7.81503 22.2685 7.95305ZM28.2582 11.6796C28.8708 10.4374 27.5776 9.05721 26.2844 9.74731C25.944 9.88533 25.5356 9.74731 25.3995 9.40226C25.2634 9.05721 25.3995 8.64315 25.7398 8.50513C27.7818 7.539 29.8237 8.9882 29.8237 11.0585C29.7557 13.5428 27.7818 12.7147 28.2582 11.6796ZM30.9808 20.0298C30.096 20.0298 30.096 18.6496 30.9808 18.6496C31.5934 18.6496 32.0018 18.1665 32.0018 17.6144C32.0018 17.0623 31.5934 16.6483 31.117 16.5793C30.7086 16.5793 30.4363 16.2342 30.5044 15.8202C30.5044 15.4751 30.8447 15.1301 31.2531 15.1991C32.4783 15.2681 33.4312 16.3722 33.4312 17.6144C33.2951 18.9946 32.2741 20.0298 30.9808 20.0298Z"
            fill="#F25323" />
    </g>
    <path
        d="M32.7485 26.7923H28.1201V24.1699H26.7588V26.7923H22.1304C21.79 26.7923 21.4497 27.1373 21.4497 27.4824V33.1412C21.4497 33.5552 21.79 33.8313 22.1304 33.8313H32.6804C33.0888 33.8313 33.3611 33.5552 33.3611 33.1412V27.4824C33.4292 27.0683 33.0888 26.7923 32.7485 26.7923ZM26.4865 31.0019H24.921V29.6217H26.4865V31.0019ZM30.0259 31.0019H28.4604V29.6217H30.0259V31.0019Z"
        fill="#F25323" />
    <mask id="mask1_805_2078" style="mask-type:luminance" maskUnits="userSpaceOnUse" x="12" y="23"
        width="13" height="22">
        <path d="M12.0063 23.9336H24.1707V44.4998H12.0063V23.9336Z" fill="white" />
    </mask>
    <g mask="url(#mask1_805_2078)">
        <path
            d="M23.3569 37.6963H18.7285V24.1704H17.3672V37.6273H12.7388C12.3984 37.6273 12.0581 37.9724 12.0581 38.3174V43.9072C12.0581 44.2522 12.3984 44.5973 12.7388 44.5973H23.3569C23.6972 44.5973 24.0376 44.2522 24.0376 43.9072V38.3174C24.0376 37.9724 23.6972 37.6963 23.3569 37.6963ZM17.0949 41.8369H15.5294V40.4567H17.0949V41.8369ZM20.6343 41.8369H19.0688V40.4567H20.6343V41.8369Z"
            fill="#F25323" />
    </g>
    <path
        d="M14.6455 35.2115V29.5527C14.6455 29.2076 14.3051 28.8626 13.9648 28.8626H9.33639V24.1699H7.97509V28.8626H3.34667C2.93828 28.8626 2.66602 29.2076 2.66602 29.5527V35.2115C2.66602 35.5565 2.93828 35.9016 3.34667 35.9016H13.8968C14.3051 35.9016 14.6455 35.5565 14.6455 35.2115ZM7.70283 33.0722H6.13733V31.692H7.70283V33.0722ZM11.2422 33.0722H9.67672V31.692H11.2422V33.0722Z"
        fill="#F25323" />
</svg>