<svg width="36" height="37" viewBox="0 0 36 37" fill="none" xmlns="http://www.w3.org/2000/svg">
<path d="M27.9602 13.1738V24.2128L18.4004 29.7331V18.6941L21.5924 16.8508V20.4005C21.5908 20.4859 21.6133 20.5697 21.6568 20.6454C21.6987 20.7195 21.7616 20.7808 21.8357 20.8226C21.9098 20.8662 21.9936 20.8887 22.0806 20.8887C22.166 20.8887 22.2498 20.8662 22.3239 20.8226L24.9713 19.2968C25.0454 19.2532 25.1066 19.192 25.1501 19.1179C25.1936 19.0422 25.2162 18.9584 25.2162 18.873V15.2395C25.2146 15.088 25.1952 14.9366 25.1566 14.79L27.9602 13.1738Z" fill="#F47920"/>
<path d="M27.4725 12.3278L24.6688 13.9455C24.5608 13.8392 24.4416 13.7457 24.3111 13.67L15.167 8.39137L17.9126 6.80908L27.4725 12.3278Z" fill="#F47920"/>
<path d="M24.2393 15.2395V18.5926L22.5684 19.5562V16.0049C22.5684 15.9968 22.5652 15.9904 22.5652 15.9839C22.5652 15.9549 22.562 15.9259 22.5555 15.8969L22.5458 15.8679C22.5362 15.8293 22.5217 15.7938 22.5023 15.76C22.483 15.7261 22.4588 15.6955 22.4314 15.6681L22.4121 15.6488C22.3896 15.6262 22.3654 15.6085 22.3364 15.594L22.3235 15.5811L12.522 9.91741L13.6757 9.25356L14.1897 8.95386L23.822 14.516C23.9477 14.5902 24.0524 14.6949 24.1265 14.8222C24.199 14.9495 24.2377 15.0929 24.2393 15.2395Z" fill="#F47920"/>
<path d="M21.1022 16.0052L17.9119 17.8469L8.35205 12.3282L11.5456 10.4849L21.1022 16.0052Z" fill="#F47920"/>
<path d="M7.86279 13.1738V24.2128L17.4242 29.7331V18.6909L7.86279 13.1738ZM11.4254 24.7381C11.3819 24.8106 11.3206 24.8734 11.2465 24.9153C11.1724 24.9588 11.0886 24.9814 11.0032 24.9814C10.9162 24.983 10.8324 24.9605 10.7583 24.9169L8.92464 23.8583C8.81346 23.7939 8.73128 23.6859 8.69744 23.5618C8.66361 23.4362 8.68133 23.3024 8.74578 23.1913C8.81024 23.0785 8.91819 22.9963 9.04226 22.9624C9.16794 22.9286 9.30168 22.9463 9.41286 23.0108L11.2465 24.0694C11.3577 24.1355 11.4399 24.2418 11.4737 24.3675C11.5059 24.4916 11.4898 24.6253 11.4254 24.7381ZM13.259 23.7504C13.2155 23.8245 13.1543 23.8857 13.0802 23.9292C13.006 23.9711 12.9223 23.9953 12.8353 23.9953C12.7499 23.9953 12.6661 23.9727 12.5919 23.9292L8.92464 21.8136C8.81346 21.7491 8.73128 21.6412 8.69744 21.5171C8.66361 21.3914 8.68133 21.2577 8.74578 21.1465C8.81024 21.0337 8.91819 20.9516 9.04226 20.9177C9.16794 20.8839 9.30168 20.9016 9.41286 20.9661L13.0802 23.0833C13.193 23.1477 13.2735 23.2541 13.3074 23.3798C13.3412 23.5055 13.3235 23.6392 13.259 23.7504Z" fill="#F47920"/>
<path d="M0.978862 23.0011C1.05137 23.0011 1.12549 22.9834 1.19155 22.9512C1.25762 22.919 1.31562 22.8722 1.36235 22.8142C1.40747 22.7562 1.43969 22.6885 1.45581 22.616C1.47192 22.5451 1.47031 22.4694 1.45419 22.3985C0.624377 18.9761 0.882185 15.3797 2.19217 12.112C3.50215 8.84429 5.79664 6.06481 8.75981 4.16187C11.723 2.25893 15.205 1.3276 18.7225 1.49517C22.2383 1.66436 25.6156 2.92439 28.3822 5.10287C28.9091 5.51697 29.4102 5.96169 29.8839 6.43541C30.1578 6.70933 30.4189 6.98969 30.667 7.27489L26.9465 7.38285C26.8176 7.38446 26.6935 7.43763 26.6033 7.53109C26.5131 7.62293 26.4631 7.74861 26.4647 7.87752C26.468 8.00803 26.5211 8.13049 26.613 8.22072C26.7064 8.31095 26.8305 8.36091 26.961 8.35929H26.9755L31.6918 8.22233C31.753 8.22072 31.8126 8.20783 31.869 8.18205L31.8771 8.18044C31.898 8.17077 31.919 8.15949 31.9383 8.1466C31.9464 8.14177 31.9544 8.13693 31.9609 8.1321C31.9657 8.12888 31.9721 8.12566 31.977 8.12243C31.9883 8.11276 31.9979 8.1031 32.0076 8.09343C32.0156 8.08537 32.0253 8.07732 32.0318 8.06926C32.0463 8.05637 32.0575 8.04026 32.0704 8.02414C32.0769 8.01609 32.0833 8.00642 32.0898 7.99675C32.0994 7.98064 32.1091 7.96453 32.1172 7.94841C32.122 7.93552 32.1284 7.92424 32.1333 7.91135C32.1397 7.89685 32.1446 7.87913 32.1494 7.86301C32.1526 7.85012 32.1558 7.83562 32.1591 7.82112C32.1623 7.80501 32.1639 7.7889 32.1655 7.77117C32.1655 7.76311 32.1671 7.75667 32.1671 7.74861L32.3057 3.02913C32.3089 2.96468 32.2992 2.90022 32.2767 2.83899C32.2557 2.77777 32.2203 2.72137 32.1768 2.67303C32.1333 2.6263 32.0801 2.58763 32.0205 2.56024C31.9609 2.53285 31.8964 2.51835 31.832 2.51674C31.7675 2.51512 31.7031 2.52479 31.6418 2.54896C31.5806 2.57313 31.5258 2.60697 31.4791 2.6537C31.4324 2.69881 31.3953 2.75198 31.3695 2.8116C31.3437 2.87122 31.3292 2.93567 31.3292 3.00012L31.2293 6.43702C31.0183 6.20177 30.8007 5.97135 30.5751 5.74416C30.074 5.24305 29.5439 4.77255 28.9864 4.33428C26.0603 2.03174 22.4881 0.699195 18.7692 0.520341C15.0487 0.343098 11.3669 1.3276 8.23292 3.34011C5.09895 5.35262 2.67072 8.29162 1.28662 11.7478C-0.0990948 15.2057 -0.373015 19.0067 0.50353 22.6273C0.529311 22.7337 0.59054 22.8287 0.675939 22.8964C0.762949 22.9641 0.869294 23.0011 0.978862 23.0011Z" fill="#F47920"/>
<mask id="mask0_805_2002" style="mask-type:luminance" maskUnits="userSpaceOnUse" x="4" y="14" width="32" height="23">
<path d="M4.23828 14.7754H36.0002V36.5343H4.23828V14.7754Z" fill="white"/>
</mask>
<g mask="url(#mask0_805_2002)">
<path d="M35.0336 15.1621C34.9063 15.1814 34.7919 15.2523 34.7162 15.357C34.6404 15.4618 34.6082 15.5939 34.6291 15.7212C35.1979 19.2515 34.634 22.8705 33.0195 26.0592C31.4033 29.2496 28.8204 31.847 25.6397 33.4776C22.459 35.1099 18.8433 35.6932 15.3097 35.1437C11.7777 34.5943 8.50842 32.9395 5.97385 30.4194L9.60249 30.3131C9.7314 30.3098 9.85385 30.2551 9.94247 30.16C10.0311 30.0665 10.0794 29.9409 10.0762 29.8103C10.0714 29.6814 10.0166 29.559 9.92314 29.4704C9.82807 29.3817 9.70239 29.3334 9.57349 29.3366L4.85561 29.4752H4.84917C4.82178 29.4768 4.79599 29.48 4.7686 29.4865C4.76377 29.4865 4.75732 29.4881 4.75088 29.4897C4.72832 29.4961 4.70737 29.5026 4.68482 29.5123C4.67676 29.5155 4.6687 29.5187 4.65903 29.5235C4.64131 29.5316 4.62359 29.5413 4.60747 29.5525C4.59619 29.559 4.58492 29.567 4.57364 29.5767C4.56558 29.5831 4.55591 29.588 4.54786 29.5944C4.54302 29.5993 4.5398 29.6041 4.53496 29.6073C4.52369 29.6202 4.51241 29.6315 4.50113 29.6444C4.49146 29.6557 4.48179 29.6653 4.47374 29.6766C4.46246 29.6927 4.45279 29.7104 4.44312 29.7266C4.43829 29.7362 4.43184 29.7459 4.42862 29.7556C4.41734 29.7781 4.40928 29.8007 4.40284 29.8232C4.40123 29.8297 4.39962 29.8345 4.398 29.841C4.39156 29.8667 4.38673 29.8941 4.38511 29.9199C4.3835 29.9247 4.3835 29.928 4.3835 29.9328C4.3835 29.9376 4.38189 29.9441 4.38028 29.9489L4.24332 34.6668C4.2401 34.7973 4.28683 34.923 4.37545 35.0164C4.46568 35.1115 4.58814 35.1663 4.71704 35.1695H4.73154C4.85884 35.1695 4.98129 35.1196 5.07153 35.0309C5.16337 34.9423 5.21654 34.8231 5.21977 34.6958L5.32289 31.1477C8.00892 33.8031 11.4652 35.5417 15.1985 36.1137C18.9319 36.6857 22.7507 36.0638 26.1086 34.3349C29.4682 32.6059 32.1929 29.8603 33.896 26.4895C35.6008 23.1186 36.1937 19.295 35.5943 15.5665C35.5846 15.502 35.5621 15.4424 35.5282 15.3876C35.4944 15.3329 35.4493 15.2845 35.3977 15.2475C35.3462 15.2104 35.2866 15.183 35.2237 15.1685C35.1625 15.154 35.098 15.1508 35.0336 15.1621Z" fill="#F47920"/>
</g>
</svg>
