<svg width="36" height="32" viewBox="0 0 36 32" fill="none" xmlns="http://www.w3.org/2000/svg">
<path d="M21.915 27.7908V29.4285C20.6953 29.8776 19.3809 30.1221 18.0123 30.1221C16.6437 30.1221 15.3303 29.8776 14.1096 29.4285V27.7908C15.31 28.3067 16.6292 28.5922 18.0123 28.5922C19.3954 28.5922 20.7146 28.3067 21.915 27.7908Z" fill="#F47920"/>
<path d="M6.32826 17.3991C6.51189 13.8332 8.20134 10.6706 10.75 8.58472V10.6346C9.06539 12.4001 7.96841 14.7674 7.82053 17.3991H6.32826Z" fill="#F47920"/>
<path d="M25.2692 10.635V8.58008C27.8178 10.6659 29.5082 13.8286 29.6909 17.3995H28.1986C28.0459 14.7677 26.9538 12.4004 25.2692 10.635Z" fill="#F47920"/>
<path d="M12.9532 13.3189C12.4448 13.3189 12.0341 12.8957 12.0341 12.3698V6.97256C12.1481 6.99851 12.2612 7.01348 12.3801 7.02346C12.439 7.02945 12.499 7.02945 12.5531 7.02945C13.2296 7.02945 13.8724 6.76897 14.3662 6.28893C14.3691 6.28893 14.3711 6.28793 14.3711 6.28394C14.8505 6.74901 15.4874 7.03444 16.1939 7.03444C16.8956 7.03444 17.5325 6.74901 18.0119 6.28394C18.4864 6.74901 19.1234 7.03444 19.8299 7.03444C20.5316 7.03444 21.1733 6.74901 21.6479 6.28394C21.6479 6.28893 21.6527 6.28893 21.6527 6.28893C22.1475 6.76897 22.7893 7.02945 23.4659 7.02945C23.5258 7.02945 23.5847 7.02945 23.6437 7.02346C23.7626 7.01348 23.8766 6.99851 23.9849 6.97256V12.3698C23.9849 12.8957 23.5751 13.3189 23.0706 13.3189H21.8064V8.99851C21.8064 8.71807 21.5889 8.48853 21.3173 8.48853H19.4056C19.134 8.48853 18.9107 8.71807 18.9107 8.99851V13.3189H12.9532ZM17.5431 8.93664C17.5431 8.69213 17.3498 8.48853 17.113 8.48853H14.6475C14.4059 8.48853 14.2126 8.69213 14.2126 8.93664V10.3857C14.2126 10.6303 14.4059 10.8348 14.6475 10.8348H17.113C17.3498 10.8348 17.5431 10.6303 17.5431 10.3857V8.93664Z" fill="#F47920"/>
<path d="M23.5592 5.70161C23.1755 5.72756 22.8102 5.59183 22.5318 5.32237C22.2515 5.05191 22.0988 4.68464 22.0988 4.28943C22.0988 4.03295 21.8978 3.82536 21.6494 3.82536C21.402 3.82536 21.2 4.03295 21.2 4.28943C21.2 5.07087 20.5862 5.70461 19.8295 5.70461C19.0746 5.70461 18.4599 5.07087 18.4599 4.28943C18.4599 4.03295 18.2589 3.82536 18.0105 3.82536C17.7631 3.82536 17.5621 4.03295 17.5621 4.28943C17.5621 5.07087 16.9474 5.70461 16.1925 5.70461C15.4358 5.70461 14.822 5.07087 14.822 4.28943C14.822 4.03295 14.62 3.82536 14.3726 3.82536C14.1242 3.82536 13.9232 4.03295 13.9232 4.28943C13.9232 4.68464 13.7705 5.05191 13.4902 5.32237C13.2118 5.59183 12.8465 5.72756 12.4628 5.70161C11.7457 5.65271 11.1851 5.005 11.1851 4.22656V3.22256C11.1851 2.91119 11.2856 2.6028 11.4683 2.35629L12.8146 0.552896C13.0736 0.20559 13.4796 0 13.9039 0H22.1181C22.5424 0 22.9484 0.20559 23.2074 0.552896L24.5528 2.35629C24.7364 2.6028 24.8369 2.91119 24.8369 3.22256V4.22656C24.8369 5.005 24.2763 5.65271 23.5592 5.70161Z" fill="#F47920"/>
<mask id="mask0_805_1384" style="mask-type:luminance" maskUnits="userSpaceOnUse" x="23" y="24" width="13" height="9">
<path d="M35.2588 24.7827H23.135V32.0003H35.2588V24.7827Z" fill="white"/>
</mask>
<g mask="url(#mask0_805_1384)">
<path d="M23.7181 25.7609C24.3947 25.7609 25.0374 25.4954 25.5313 25.0213C25.5313 25.0164 25.5361 25.0164 25.5361 25.0164C26.0107 25.4754 26.6524 25.7609 27.3541 25.7609C28.0606 25.7609 28.6975 25.4754 29.1721 25.0164C29.6515 25.4754 30.2884 25.7609 30.9901 25.7609C31.6966 25.7609 32.3335 25.4754 32.8129 25.0164L32.8177 25.0213C33.3116 25.4954 33.9543 25.7609 34.6309 25.7609C34.6908 25.7609 34.7498 25.7559 34.8039 25.7559C34.9228 25.7459 35.0359 25.7299 35.1499 25.705V31.0972C35.1499 31.6222 34.7401 32.0453 34.2308 32.0453H32.9714V27.7249C32.9714 27.4445 32.7491 27.22 32.4775 27.22H30.5706C30.2981 27.22 30.0758 27.4445 30.0758 27.7249V32.0453H24.1183C23.6089 32.0453 23.1991 31.6222 23.1991 31.0972V25.705C23.3083 25.7299 23.4262 25.7459 23.5403 25.7559C23.5992 25.7559 23.6592 25.7609 23.7181 25.7609ZM25.3776 29.1122C25.3776 29.3627 25.5709 29.5613 25.8077 29.5613H28.2781C28.5149 29.5613 28.7082 29.3627 28.7082 29.1122V27.6641C28.7082 27.4186 28.5149 27.22 28.2781 27.22H25.8077C25.5709 27.22 25.3776 27.4186 25.3776 27.6641V29.1122Z" fill="#F47920"/>
</g>
<path d="M23.9782 19.2819C24.2362 18.9346 24.6422 18.729 25.0665 18.729H33.2817C33.706 18.729 34.1119 18.9346 34.371 19.2819L35.7163 21.0853C35.9 21.3318 36.0005 21.6402 36.0005 21.9516V22.9556C36.0005 23.735 35.4399 24.3827 34.7228 24.4306C34.3381 24.4566 33.9737 24.3208 33.6954 24.0524C33.4151 23.7809 33.2624 23.4136 33.2624 23.0184C33.2624 22.7629 33.0604 22.5544 32.813 22.5544C32.5646 22.5544 32.3635 22.7629 32.3635 23.0184C32.3635 23.7999 31.7488 24.4346 30.9921 24.4346C30.2382 24.4346 29.6235 23.7999 29.6235 23.0184C29.6235 22.7629 29.4225 22.5544 29.1741 22.5544C28.9267 22.5544 28.7247 22.7629 28.7247 23.0184C28.7247 23.7999 28.11 24.4346 27.3561 24.4346C26.5993 24.4346 25.9846 23.7999 25.9846 23.0184C25.9846 22.7629 25.7836 22.5544 25.5352 22.5544C25.2878 22.5544 25.0868 22.7629 25.0868 23.0184C25.0868 23.4136 24.934 23.7809 24.6538 24.0524C24.3744 24.3208 24.0101 24.4566 23.6254 24.4306C22.9083 24.3827 22.3477 23.735 22.3477 22.9556V21.9516C22.3477 21.6402 22.4482 21.3318 22.6318 21.0853L23.9782 19.2819Z" fill="#F47920"/>
<mask id="mask1_805_1384" style="mask-type:luminance" maskUnits="userSpaceOnUse" x="0" y="24" width="13" height="9">
<path d="M12.9897 24.7827H0.865955V32.0003H12.9897V24.7827Z" fill="white"/>
</mask>
<g mask="url(#mask1_805_1384)">
<path d="M1.39293 25.7609C2.06465 25.7609 2.7122 25.4954 3.20609 25.0213C3.20609 25.0174 3.20802 25.0164 3.21092 25.0164C3.68547 25.4754 4.32723 25.7609 5.02891 25.7609C5.73059 25.7609 6.37234 25.4754 6.8469 25.0164C7.32145 25.4754 7.96321 25.7609 8.66489 25.7609C9.36657 25.7609 10.0093 25.4754 10.4829 25.0164C10.4867 25.0164 10.4877 25.0174 10.4877 25.0213C10.9826 25.4954 11.6291 25.7609 12.3009 25.7609C12.3608 25.7609 12.4197 25.7559 12.4787 25.7559C12.5976 25.7459 12.7116 25.7299 12.8247 25.705V31.0972C12.8247 31.6222 12.4101 32.0453 11.9056 32.0453H10.6414V27.7249C10.6414 27.4445 10.4239 27.22 10.1523 27.22H8.24059C7.96804 27.22 7.74574 27.4445 7.74574 27.7249V32.0453H1.78823C1.27985 32.0453 0.869086 31.6222 0.869086 31.0972V25.705C0.983133 25.7299 1.09621 25.7459 1.21509 25.7559C1.27405 25.7559 1.33397 25.7609 1.39293 25.7609ZM3.04758 29.1122C3.04758 29.3627 3.24571 29.5613 3.48251 29.5613H5.94805C6.18484 29.5613 6.38298 29.3627 6.38298 29.1122V27.6641C6.38298 27.4186 6.18484 27.22 5.94805 27.22H3.48251C3.24571 27.22 3.04758 27.4186 3.04758 27.6641V29.1122Z" fill="#F47920"/>
</g>
<mask id="mask2_805_1384" style="mask-type:luminance" maskUnits="userSpaceOnUse" x="0" y="18" width="14" height="7">
<path d="M13.7324 18.6511H0.000372887V24.5274H13.7324V18.6511Z" fill="white"/>
</mask>
<g mask="url(#mask2_805_1384)">
<path d="M0.304206 21.0853L1.64958 19.2819C1.9086 18.9346 2.31453 18.729 2.73882 18.729H10.9541C11.3784 18.729 11.7843 18.9346 12.0424 19.2819L13.3887 21.0853C13.5723 21.3318 13.6729 21.6402 13.6729 21.9516V22.9556C13.6729 23.735 13.1123 24.3827 12.3951 24.4306C12.0105 24.4566 11.6461 24.3208 11.3668 24.0524C11.0865 23.7809 10.9338 23.4136 10.9338 23.0184C10.9338 22.7629 10.7328 22.5544 10.4853 22.5544C10.2369 22.5544 10.0359 22.7629 10.0359 23.0184C10.0359 23.7999 9.42121 24.4346 8.66444 24.4346C7.9096 24.4346 7.29588 23.7999 7.29588 23.0184C7.29588 22.7629 7.09388 22.5544 6.84645 22.5544C6.59806 22.5544 6.39703 22.7629 6.39703 23.0184C6.39703 23.7999 5.78234 24.4346 5.0275 24.4346C4.27169 24.4346 3.657 23.7999 3.657 23.0184C3.657 22.7629 3.45597 22.5544 3.20758 22.5544C2.96015 22.5544 2.75815 22.7629 2.75815 23.0184C2.75815 23.4136 2.60544 23.7809 2.32516 24.0524C2.04681 24.3208 1.68244 24.4566 1.29777 24.4306C0.580625 24.3827 0.0200539 23.735 0.0200539 22.9556V21.9516C0.0200539 21.6402 0.12057 21.3318 0.304206 21.0853Z" fill="#F47920"/>
</g>
</svg>
