<svg width="32" height="33" viewBox="0 0 32 33" fill="none" xmlns="http://www.w3.org/2000/svg">
<path d="M28 15.411V11.5403C28 9.35368 28 8.26033 27.4612 7.54701C26.9224 6.83368 25.7041 6.48737 23.2676 5.79476C21.6029 5.32156 20.1355 4.75147 18.9631 4.23101C17.3645 3.52143 16.5653 3.16663 16 3.16663C15.4347 3.16663 14.6355 3.52143 13.0369 4.23101C11.8645 4.75147 10.3971 5.32155 8.73244 5.79476C6.29591 6.48737 5.07763 6.83368 4.53881 7.54701C4 8.26033 4 9.35368 4 11.5403V15.411C4 22.9113 10.7504 27.4113 14.1253 29.1925C14.9348 29.6197 15.3395 29.8333 16 29.8333C16.6605 29.8333 17.0652 29.6197 17.8747 29.1925C21.2496 27.4113 28 22.9113 28 15.411Z" fill="#F47920" stroke="#0D121D" stroke-width="1.5" stroke-linecap="round"/>
<path d="M11 17.8333C11 17.8333 12.3333 17.8333 13.6667 20.5C13.6667 20.5 17.902 13.8333 21.6667 12.5" stroke="#0D121D" stroke-width="1.5" stroke-linecap="round" stroke-linejoin="round"/>
</svg>
