<svg width="80" height="80" viewBox="0 0 80 80" fill="none" xmlns="http://www.w3.org/2000/svg">
<g clip-path="url(#clip0_1495_4408)">
<path opacity="0.2" d="M40 80C62.0914 80 80 62.0914 80 40C80 17.9086 62.0914 0 40 0C17.9086 0 0 17.9086 0 40C0 62.0914 17.9086 80 40 80Z" fill="white"/>
<path d="M40 69.6773C56.3904 69.6773 69.6774 56.3903 69.6774 39.9999C69.6774 23.6095 56.3904 10.3225 40 10.3225C23.6096 10.3225 10.3226 23.6095 10.3226 39.9999C10.3226 56.3903 23.6096 69.6773 40 69.6773Z" fill="white"/>
<path d="M53.151 41.3159C52.562 43.4049 49.7777 44.8812 44.2097 47.8339C38.8267 50.6879 36.1353 52.1152 33.9663 51.5416C33.0697 51.3042 32.2527 50.8539 31.5937 50.2336C30 48.7326 30 45.8216 30 39.9999C30 34.1782 30 31.2672 31.5937 29.7664C32.2527 29.1459 33.0697 28.6955 33.9663 28.4583C36.1353 27.8847 38.8267 29.3118 44.2097 32.166C49.7777 35.1186 52.562 36.5949 53.151 38.6839C53.394 39.5462 53.394 40.4536 53.151 41.3159Z" fill="#F25323"/>
</g>
<defs>
<clipPath id="clip0_1495_4408">
<rect width="80" height="80" fill="white"/>
</clipPath>
</defs>
</svg>
