<svg width="64" height="64" viewBox="0 0 64 64" fill="none" xmlns="http://www.w3.org/2000/svg">
<rect width="64" height="64" rx="32" fill="#EEEEEE"/>
<path d="M30.6654 18.6667C26.2656 18.6667 24.0657 18.6667 22.6989 20.0336C21.332 21.4004 21.332 23.6003 21.332 28.0001V36.0001C21.332 40.3998 21.332 42.5997 22.6989 43.9666C24.0657 45.3334 26.2656 45.3334 30.6654 45.3334C35.0652 45.3334 37.265 45.3334 38.632 43.9666C39.9988 42.5997 39.9988 40.3998 39.9988 36.0001V34.6667" stroke="#F25323" stroke-width="2" stroke-linecap="round"/>
<path d="M29.332 41.3333H31.9988" stroke="#F25323" stroke-width="2" stroke-linecap="round" stroke-linejoin="round"/>
<path d="M35.7815 23.1733C34.3415 23.1733 33.6215 24.2133 33.4615 24.8533C33.3015 25.4934 33.3015 27.8133 33.3975 28.7733C33.7175 29.9733 34.5175 30.4693 35.3015 30.6293C36.0215 30.6933 39.0615 30.6693 39.9415 30.6693C41.2215 30.6933 42.1815 30.2133 42.5815 28.7733C42.6615 28.2933 42.7415 25.6533 42.5415 24.8533C42.1175 23.5733 41.0615 23.1733 40.2615 23.1733H35.7815Z" fill="#F25323" stroke="#F25323" stroke-width="2" stroke-linecap="round"/>
<path d="M35.6659 22.6113C35.6659 22.5313 35.6768 22.0708 35.6787 21.4913C35.6803 20.9619 35.6339 20.4513 35.8867 19.9841C36.8339 18.0993 39.5539 18.2913 40.2259 20.2113C40.3423 20.5275 40.3492 21.0286 40.3459 21.4913C40.3415 22.0827 40.3539 22.6113 40.3539 22.6113" stroke="#F25323" stroke-width="2" stroke-linecap="round"/>
</svg>
