<svg width="40" height="40" viewBox="0 0 40 40" fill="none" xmlns="http://www.w3.org/2000/svg">
<path d="M25.0002 4.09637C23.4218 3.60062 21.7422 3.33337 20.0002 3.33337C10.7954 3.33337 3.3335 10.7953 3.3335 20C3.3335 29.2047 10.7954 36.6667 20.0002 36.6667C29.2048 36.6667 36.6668 29.2047 36.6668 20C36.6668 18.258 36.3995 16.5784 35.9038 15" stroke="#F47920" stroke-width="3" stroke-linecap="round" stroke-linejoin="round"/>
<path d="M25 16.6666C25 19.4281 22.7615 21.6666 20 21.6666C17.2385 21.6666 15 19.4281 15 16.6666C15 13.9052 17.2385 11.6666 20 11.6666C22.7615 11.6666 25 13.9052 25 16.6666Z" stroke="#F47920" stroke-width="3" stroke-linecap="round" stroke-linejoin="round"/>
<path d="M9.1665 32.5002L10.1005 30.8657C11.5842 28.2694 14.3454 26.6669 17.3359 26.6669H22.6638C25.6543 26.6669 28.4154 28.2694 29.8991 30.8657L30.8331 32.5002" stroke="#F47920" stroke-width="3" stroke-linecap="round" stroke-linejoin="round"/>
<path d="M31.6227 3.36917C31.6324 3.32144 31.7007 3.32144 31.7104 3.36917C32.2169 5.84684 34.153 7.78311 36.6307 8.28951C36.6785 8.29927 36.6785 8.36747 36.6307 8.37724C34.153 8.88364 32.2169 10.8199 31.7104 13.2976C31.7007 13.3453 31.6324 13.3453 31.6227 13.2976C31.1162 10.8199 29.18 8.88364 26.7024 8.37724C26.6545 8.36747 26.6545 8.29927 26.7024 8.28951C29.18 7.78311 31.1162 5.84684 31.6227 3.36917Z" stroke="#F47920" stroke-width="3" stroke-linecap="round" stroke-linejoin="round"/>
</svg>
