<svg width="40" height="40" viewBox="0 0 40 40" fill="none" xmlns="http://www.w3.org/2000/svg">
<path d="M18.3323 3.33331C12.8325 3.33331 10.0826 3.33331 8.37408 5.04186C6.66553 6.7504 6.66553 9.50026 6.66553 15V25C6.66553 30.4996 6.66553 33.2495 8.37408 34.9581C10.0826 36.6666 12.8325 36.6666 18.3323 36.6666C23.8319 36.6666 26.5818 36.6666 28.2904 34.9581C29.9989 33.2495 29.9989 30.4996 29.9989 25V23.3333" stroke="#F47920" stroke-width="3" stroke-linecap="round"/>
<path d="M16.6655 31.6667H19.9989" stroke="#F47920" stroke-width="3" stroke-linecap="round" stroke-linejoin="round"/>
<path d="M24.7274 8.96667C22.9274 8.96667 22.0274 10.2667 21.8274 11.0667C21.6274 11.8667 21.6274 14.7667 21.7474 15.9667C22.1474 17.4667 23.1474 18.0867 24.1274 18.2867C25.0274 18.3667 28.8274 18.3367 29.9274 18.3367C31.5274 18.3667 32.7274 17.7667 33.2274 15.9667C33.3274 15.3667 33.4274 12.0667 33.1774 11.0667C32.6474 9.46667 31.3274 8.96667 30.3274 8.96667H24.7274Z" stroke="#F47920" stroke-width="3" stroke-linecap="round"/>
<path d="M24.5825 8.26422C24.5825 8.16422 24.5962 7.58852 24.5985 6.86422C24.6005 6.2024 24.5425 5.56422 24.8585 4.98022C26.0425 2.62422 29.4425 2.86422 30.2825 5.26422C30.428 5.65935 30.4367 6.28575 30.4325 6.86422C30.427 7.60337 30.4425 8.26422 30.4425 8.26422" stroke="#F47920" stroke-width="3" stroke-linecap="round"/>
</svg>
