<svg width="40" height="40" viewBox="0 0 40 40" fill="none" xmlns="http://www.w3.org/2000/svg">
<path d="M18.55 9.77243C15.9448 10.3468 14 12.6106 14 15.3158C14 15.6386 14.0277 15.9551 14.0809 16.2632M18.55 9.77243L16.6 9M18.55 9.77243L17.9 11.5263M25.0919 17.8421C25.4811 17.0811 25.7 16.2232 25.7 15.3158C25.7 12.4993 23.5918 10.1612 20.825 9.71017M25.0919 17.8421L27 16.5789M25.0919 17.8421L24.075 15.9474M14.9851 18.4737C16.0345 19.9971 17.8217 21 19.85 21C21.3483 21 22.715 20.4527 23.75 19.5526M14.9851 18.4737H17.25M14.9851 18.4737V20.6842" stroke="#F47920" stroke-width="2" stroke-linecap="round" stroke-linejoin="round"/>
<path d="M34 15.5926C34 21.6041 23.5397 33.218 20.7026 36.2574C20.3172 36.6702 19.6828 36.6702 19.2974 36.2574C16.4603 33.218 6 21.6041 6 15.5926C6 8.63791 12.2678 3 20 3C27.7322 3 34 8.63791 34 15.5926Z" stroke="#F47920" stroke-width="3"/>
</svg>
