<svg width="64" height="64" viewBox="0 0 64 64" fill="none" xmlns="http://www.w3.org/2000/svg">
<rect width="64" height="64" rx="32" fill="#EEEEEE"/>
<path d="M30.8392 23.8179C28.7551 24.2774 27.1992 26.0885 27.1992 28.2526C27.1992 28.5108 27.2214 28.764 27.2639 29.0105M30.8392 23.8179L29.2792 23.2M30.8392 23.8179L30.3192 25.221M36.0728 30.2736C36.3841 29.6648 36.5592 28.9785 36.5592 28.2526C36.5592 25.9994 34.8727 24.1289 32.6592 23.7681M36.0728 30.2736L37.5992 29.2631M36.0728 30.2736L35.2592 28.7578M27.9873 30.7789C28.8269 31.9976 30.2566 32.8 31.8792 32.8C33.0779 32.8 34.1712 32.3621 34.9992 31.642M27.9873 30.7789H29.7992M27.9873 30.7789V32.5473" stroke="#F25323" stroke-linecap="round" stroke-linejoin="round"/>
<path d="M43.2008 28.4741C43.2008 33.1868 35.165 42.2034 32.7067 44.8514C32.3225 45.2652 31.6791 45.2652 31.2948 44.8514C28.8366 42.2034 20.8008 33.1868 20.8008 28.4741C20.8008 22.9104 25.815 18.4 32.0008 18.4C38.1865 18.4 43.2008 22.9104 43.2008 28.4741Z" stroke="#F25323" stroke-width="2"/>
</svg>
