<svg width="64" height="64" viewBox="0 0 64 64" fill="none" xmlns="http://www.w3.org/2000/svg">
<rect width="64" height="64" rx="32" fill="#EEEEEE"/>
<path d="M21.334 33.3274V35.3873C21.334 39.7162 21.334 41.8806 22.5154 43.3466C22.7541 43.6427 23.0237 43.9126 23.3198 44.1514C24.7851 45.3334 26.9484 45.3334 31.2751 45.3334C32.2159 45.3334 32.6861 45.3334 33.1169 45.1813C33.2065 45.1497 33.2943 45.1133 33.38 45.0723C33.7921 44.8751 34.1247 44.5423 34.7899 43.8769L41.1052 37.5582C41.876 36.7871 42.2613 36.4015 42.4644 35.9113C42.6673 35.4209 42.6673 34.8757 42.6673 33.7851V29.3253C42.6673 24.2945 42.6673 21.7791 41.1052 20.2162C39.8634 18.9737 38.0198 18.719 34.7899 18.6667M33.334 44.6663V43.9994C33.334 40.2262 33.334 38.3397 34.5056 37.1675C35.6772 35.9954 37.5628 35.9954 41.334 35.9954H42.0006" stroke="#F25323" stroke-width="2" stroke-linecap="round" stroke-linejoin="round"/>
<path d="M26.6673 29.0304C29.0237 29.0304 30.934 27.0767 30.934 24.6667C30.934 22.2568 29.0237 20.3031 26.6673 20.3031M26.6673 29.0304C24.3109 29.0304 22.4007 27.0767 22.4007 24.6667C22.4007 22.2568 24.3109 20.3031 26.6673 20.3031M26.6673 29.0304V30.6667M26.6673 20.3031V18.6667M22.7891 22.2866L21.3346 21.394M32.0007 27.9395L30.5463 27.0469M30.5456 22.2866L32.0001 21.394M21.334 27.9395L22.7885 27.0469" stroke="#F25323" stroke-width="2" stroke-linecap="round"/>
</svg>
