<svg width="40" height="40" viewBox="0 0 40 40" fill="none" xmlns="http://www.w3.org/2000/svg">
<path d="M6.6665 21.6591V24.234C6.6665 29.6451 6.6665 32.3506 8.14329 34.1831C8.44164 34.5533 8.77869 34.8906 9.14872 35.1891C10.9804 36.6666 13.6845 36.6666 19.0928 36.6666C20.2688 36.6666 20.8567 36.6666 21.3952 36.4765C21.5072 36.437 21.6168 36.3915 21.724 36.3403C22.2392 36.0938 22.6548 35.6778 23.4863 34.846L31.3805 26.9476C32.344 25.9838 32.8257 25.5018 33.0795 24.889C33.3332 24.276 33.3332 23.5945 33.3332 22.2313V16.6565C33.3332 10.368 33.3332 7.2237 31.3805 5.27008C29.8283 3.71701 27.5238 3.3986 23.4863 3.33331M21.6665 35.8328V34.9991C21.6665 30.2826 21.6665 27.9245 23.131 26.4593C24.5955 24.9941 26.9525 24.9941 31.6665 24.9941H32.4998" stroke="#F4765E" stroke-width="3" stroke-linecap="round" stroke-linejoin="round"/>
<path d="M13.3332 16.2879C16.2787 16.2879 18.6665 13.8458 18.6665 10.8333C18.6665 7.82085 16.2787 5.37876 13.3332 5.37876M13.3332 16.2879C10.3877 16.2879 7.99984 13.8458 7.99984 10.8333C7.99984 7.82085 10.3877 5.37876 13.3332 5.37876M13.3332 16.2879V18.3333M13.3332 5.37876V3.33331M8.48534 7.85811L6.66725 6.7424M19.9998 14.9242L18.1818 13.8085M18.181 7.85811L19.9992 6.7424M6.6665 14.9242L8.48459 13.8085" stroke="#F4765E" stroke-width="3" stroke-linecap="round"/>
</svg>
