<svg width="64" height="64" viewBox="0 0 64 64" fill="none" xmlns="http://www.w3.org/2000/svg">
<rect width="64" height="64" rx="32" fill="#EEEEEE"/>
<path d="M39.9993 38.1443C39.9832 41.2717 39.8545 42.9653 38.83 44.0701C37.6583 45.3334 35.7724 45.3334 32.0008 45.3334H26.6669C22.8952 45.3334 21.0094 45.3334 19.8377 44.0701C18.666 42.8066 18.666 40.7733 18.666 36.7065V35.2687C18.666 31.2019 18.666 29.1686 19.8377 27.9052C20.6929 26.9831 21.9284 26.734 23.9999 26.6667" fill="white"/>
<path d="M39.9993 38.1443C39.9832 41.2717 39.8545 42.9653 38.83 44.0701C37.6583 45.3334 35.7724 45.3334 32.0008 45.3334H26.6669C22.8952 45.3334 21.0094 45.3334 19.8377 44.0701C18.666 42.8066 18.666 40.7733 18.666 36.7065V35.2687C18.666 31.2019 18.666 29.1686 19.8377 27.9052C20.6929 26.9831 21.9284 26.734 23.9999 26.6667" stroke="#F25323" stroke-width="2"/>
<path d="M37.3333 18.6666H32C28.2288 18.6666 26.3431 18.6666 25.1716 19.9283C24 21.19 24 23.2207 24 27.282V28.7179C24 32.7793 24 34.81 25.1716 36.0716C26.3431 37.3333 28.2288 37.3333 32 37.3333H37.3333C41.1045 37.3333 42.9901 37.3333 44.1617 36.0716C45.3333 34.81 45.3333 32.7793 45.3333 28.7179V27.282C45.3333 23.2207 45.3333 21.19 44.1617 19.9283C42.9901 18.6666 41.1045 18.6666 37.3333 18.6666Z" fill="#FEF2E9" stroke="#F25323" stroke-width="2"/>
<path d="M30.192 25.6125L33.2654 25.6008M30.2115 30.7348L39.4316 30.6997" stroke="#F25323" stroke-width="2" stroke-linecap="round"/>
</svg>
