<svg width="40" height="40" viewBox="0 0 40 40" fill="none" xmlns="http://www.w3.org/2000/svg">
<path d="M26.6667 3.33331H20C15.2859 3.33331 12.9289 3.33331 11.4645 4.91043C10 6.48755 10 9.02588 10 14.1025V15.8974C10 20.9741 10 23.5125 11.4645 25.0895C12.9289 26.6666 15.2859 26.6666 20 26.6666H26.6667C31.3807 26.6666 33.7377 26.6666 35.2022 25.0895C36.6667 23.5125 36.6667 20.9741 36.6667 15.8974V14.1025C36.6667 9.02588 36.6667 6.48755 35.2022 4.91043C33.7377 3.33331 31.3807 3.33331 26.6667 3.33331Z" stroke="#F47920" stroke-width="3"/>
<path d="M17.741 12.0157L21.5827 12.001M17.7653 18.4185L29.2905 18.3747" stroke="#F47920" stroke-width="3" stroke-linecap="round"/>
<path d="M30.0002 27.6803C29.98 31.5895 29.8192 33.7065 28.5385 35.0875C27.0738 36.6666 24.7165 36.6666 20.002 36.6666H13.3346C8.62003 36.6666 6.26275 36.6666 4.79813 35.0875C3.3335 33.5081 3.3335 30.9665 3.3335 25.883V24.0858C3.3335 19.0023 3.3335 16.4606 4.79813 14.8814C5.86708 13.7288 7.41153 13.4174 10.0009 13.3333" stroke="#F47920" stroke-width="3"/>
</svg>
