<svg width="40" height="40" viewBox="0 0 40 40" fill="none" xmlns="http://www.w3.org/2000/svg">
<path d="M15.0002 6.20505C8.3202 7.7208 3.3335 13.6947 3.3335 20.8334C3.3335 21.6852 3.4045 22.5204 3.5409 23.3334M15.0002 6.20505L10.0002 4.16669M15.0002 6.20505L13.3335 10.8334M31.7743 27.5C32.7723 25.4917 33.3335 23.228 33.3335 20.8334C33.3335 13.4009 27.9278 7.23094 20.8335 6.04075M31.7743 27.5L36.6668 24.1667M31.7743 27.5L29.1668 22.5M5.85941 29.1667C8.55028 33.1867 13.1328 35.8334 18.3335 35.8334C22.1753 35.8334 25.6797 34.389 28.3335 32.0139M5.85941 29.1667H11.6668M5.85941 29.1667V35" stroke="#F4765E" stroke-width="3" stroke-linecap="round" stroke-linejoin="round"/>
</svg>
