<svg width="64" height="64" viewBox="0 0 64 64" fill="none" xmlns="http://www.w3.org/2000/svg">
<rect width="64" height="64" rx="32" fill="#EEEEEE"/>
<path d="M27.9993 20.9639C22.6554 22.1765 18.666 26.9557 18.666 32.6666C18.666 33.3481 18.7228 34.0162 18.8319 34.6666M27.9993 20.9639L23.9993 19.3333M27.9993 20.9639L26.666 24.6666M41.4187 37.9999C42.2171 36.3933 42.666 34.5823 42.666 32.6666C42.666 26.7206 38.3415 21.7847 32.666 20.8325M41.4187 37.9999L45.3327 35.3333M41.4187 37.9999L39.3327 33.9999M20.6867 39.3333C22.8394 42.5493 26.5055 44.6666 30.666 44.6666C33.7395 44.6666 36.5429 43.5111 38.666 41.611M20.6867 39.3333H25.3327M20.6867 39.3333V43.9999" stroke="#F25323" stroke-width="2" stroke-linecap="round" stroke-linejoin="round"/>
</svg>
