<svg width="62" height="62" viewBox="0 0 62 62" fill="none" xmlns="http://www.w3.org/2000/svg">
<path opacity="0.4" d="M31 61C47.5685 61 61 47.5685 61 31C61 14.4315 47.5685 1 31 1C14.4315 1 1 14.4315 1 31C1 47.5685 14.4315 61 31 61Z" fill="white"/>
<path d="M31 54C43.7025 54 54 43.7025 54 31C54 18.2975 43.7025 8 31 8C18.2975 8 8 18.2975 8 31C8 43.7025 18.2975 54 31 54Z" fill="white"/>
<path d="M41.192 32.0199C40.7356 33.6389 38.5777 34.783 34.2625 37.0714C30.0907 39.2832 28.0049 40.3894 26.3239 39.9448C25.629 39.7609 24.9958 39.4119 24.4851 38.9311C23.25 37.7678 23.25 35.5118 23.25 31C23.25 26.4882 23.25 24.2321 24.4851 23.069C24.9958 22.5882 25.629 22.2391 26.3239 22.0553C28.0049 21.6107 30.0907 22.7167 34.2625 24.9287C38.5777 27.217 40.7356 28.3611 41.192 29.9801C41.3804 30.6484 41.3804 31.3516 41.192 32.0199Z" fill="#F47920"/>
</svg>
