<svg width="40" height="40" viewBox="0 0 40 40" fill="none" xmlns="http://www.w3.org/2000/svg">
<path d="M10.8335 29.1667V24.1667M19.1668 29.1667V14.1667M27.5002 29.1667V22.5" stroke="#F47920" stroke-width="3" stroke-linecap="round"/>
<path d="M35.8335 9.16669C35.8335 11.9281 33.595 14.1667 30.8335 14.1667C28.072 14.1667 25.8335 11.9281 25.8335 9.16669C25.8335 6.40527 28.072 4.16669 30.8335 4.16669C33.595 4.16669 35.8335 6.40527 35.8335 9.16669Z" stroke="#F47920" stroke-width="3"/>
<path d="M35.8257 18.3334C35.8257 18.3334 35.8332 18.8992 35.8332 20C35.8332 27.464 35.8332 31.1959 33.5145 33.5147C31.1957 35.8334 27.4637 35.8334 19.9998 35.8334C12.5359 35.8334 8.80399 35.8334 6.48524 33.5147C4.1665 31.1959 4.1665 27.464 4.1665 20C4.1665 12.5362 4.1665 8.80422 6.48524 6.48547C8.80399 4.16674 12.5359 4.16674 19.9998 4.16674L21.6665 4.16669" stroke="#F47920" stroke-width="3" stroke-linecap="round" stroke-linejoin="round"/>
</svg>
