<svg width="64" height="64" viewBox="0 0 64 64" fill="none" xmlns="http://www.w3.org/2000/svg">
<rect width="64" height="64" rx="32" fill="#EEEEEE"/>
<path d="M24.666 39.3333V35.3333M31.3327 39.3333V27.3333M37.9993 39.3333V33.9999" stroke="#F25323" stroke-width="2" stroke-linecap="round"/>
<path d="M44.666 23.3333C44.666 25.5424 42.8752 27.3333 40.666 27.3333C38.4568 27.3333 36.666 25.5424 36.666 23.3333C36.666 21.1241 38.4568 19.3333 40.666 19.3333C42.8752 19.3333 44.666 21.1241 44.666 23.3333Z" fill="#F25323" stroke="#F25323" stroke-width="2"/>
<path d="M44.6613 30.6666C44.6613 30.6666 44.6673 31.1193 44.6673 31.9999C44.6673 37.9711 44.6673 40.9566 42.8124 42.8117C40.9573 44.6666 37.9717 44.6666 32.0007 44.6666C26.0295 44.6666 23.044 44.6666 21.189 42.8117C19.334 40.9566 19.334 37.9711 19.334 31.9999C19.334 26.0288 19.334 23.0433 21.189 21.1883C23.044 19.3333 26.0295 19.3333 32.0007 19.3333L33.334 19.3333" stroke="#F25323" stroke-width="2" stroke-linecap="round" stroke-linejoin="round"/>
</svg>
