<svg width="40" height="40" viewBox="0 0 40 40" fill="none" xmlns="http://www.w3.org/2000/svg">
<path d="M25 4.16663V6.66663C25 9.02364 25 10.2022 25.7322 10.9344C26.4645 11.6666 27.643 11.6666 30 11.6666H32.5" stroke="#F47920" stroke-width="3" stroke-linecap="round" stroke-linejoin="round"/>
<path d="M6.6665 26.6667V13.3334C6.6665 8.61932 6.6665 6.26231 8.13097 4.79784C9.59544 3.33337 11.9525 3.33337 16.6665 3.33337H23.6192C24.3003 3.33337 24.641 3.33337 24.9473 3.46024C25.2535 3.58711 25.4945 3.82797 25.9762 4.30969L32.3568 10.6904C32.8385 11.1721 33.0795 11.413 33.2063 11.7193C33.3332 12.0255 33.3332 12.3662 33.3332 13.0474V26.6667C33.3332 31.3807 33.3332 33.7377 31.8687 35.2022C30.4042 36.6667 28.0472 36.6667 23.3332 36.6667H16.6665C11.9525 36.6667 9.59544 36.6667 8.13097 35.2022C6.6665 33.7377 6.6665 31.3807 6.6665 26.6667Z" stroke="#F47920" stroke-width="3" stroke-linecap="round" stroke-linejoin="round"/>
<path d="M20 18.3334V23.3334M20 23.3334V28.3334M20 23.3334H12.5M20 23.3334H27.5M15.8333 28.3334H24.1667C25.738 28.3334 26.5237 28.3334 27.0118 27.8452C27.5 27.357 27.5 26.5714 27.5 25V21.6667C27.5 20.0954 27.5 19.3097 27.0118 18.8215C26.5237 18.3334 25.738 18.3334 24.1667 18.3334H15.8333C14.262 18.3334 13.4763 18.3334 12.9882 18.8215C12.5 19.3097 12.5 20.0954 12.5 21.6667V25C12.5 26.5714 12.5 27.357 12.9882 27.8452C13.4763 28.3334 14.262 28.3334 15.8333 28.3334Z" stroke="#F47920" stroke-width="2.5" stroke-linecap="round" stroke-linejoin="round"/>
</svg>
