<svg width="64" height="64" viewBox="0 0 64 64" fill="none" xmlns="http://www.w3.org/2000/svg">
<rect width="64" height="64" rx="32" fill="#EEEEEE"/>
<path d="M36 19.3334V21.3334C36 23.219 36 24.1618 36.5857 24.7476C37.1716 25.3334 38.1144 25.3334 40 25.3334H42" stroke="#F25323" stroke-width="2" stroke-linecap="round" stroke-linejoin="round"/>
<path d="M21.334 37.3333V26.6666C21.334 22.8954 21.334 21.0098 22.5056 19.8382C23.6771 18.6666 25.5627 18.6666 29.334 18.6666H34.8961C35.4411 18.6666 35.7136 18.6666 35.9587 18.7681C36.2036 18.8696 36.3964 19.0623 36.7817 19.4477L41.8862 24.5522C42.2716 24.9376 42.4644 25.1303 42.5659 25.3753C42.6673 25.6204 42.6673 25.8929 42.6673 26.4379V37.3333C42.6673 41.1045 42.6673 42.9901 41.4957 44.1617C40.3241 45.3333 38.4385 45.3333 34.6673 45.3333H29.334C25.5627 45.3333 23.6771 45.3333 22.5056 44.1617C21.334 42.9901 21.334 41.1045 21.334 37.3333Z" stroke="#F25323" stroke-width="2" stroke-linecap="round" stroke-linejoin="round"/>
<path d="M32 30.6666V34.6666M32 34.6666V38.6666M32 34.6666H26M32 34.6666H38M28.6667 38.6666H35.3333C36.5904 38.6666 37.2189 38.6666 37.6095 38.2761C38 37.8856 38 37.257 38 36V33.3333C38 32.0762 38 31.4477 37.6095 31.0572C37.2189 30.6666 36.5904 30.6666 35.3333 30.6666H28.6667C27.4096 30.6666 26.7811 30.6666 26.3905 31.0572C26 31.4477 26 32.0762 26 33.3333V36C26 37.257 26 37.8856 26.3905 38.2761C26.7811 38.6666 27.4096 38.6666 28.6667 38.6666Z" stroke="#F25323" stroke-linecap="round" stroke-linejoin="round"/>
</svg>
