<svg width="64" height="64" viewBox="0 0 64 64" fill="none" xmlns="http://www.w3.org/2000/svg">
<rect width="64" height="64" rx="32" fill="#EEEEEE"/>
<path d="M36 19.277C34.7373 18.8804 33.3936 18.6666 32 18.6666C24.6362 18.6666 18.6667 24.6362 18.6667 32C18.6667 39.3637 24.6362 45.3333 32 45.3333C39.3637 45.3333 45.3333 39.3637 45.3333 32C45.3333 30.6064 45.1195 29.2627 44.7229 28" stroke="#F25323" stroke-width="2" stroke-linecap="round" stroke-linejoin="round"/>
<path d="M36 29.3334C36 31.5426 34.2092 33.3334 32 33.3334C29.7908 33.3334 28 31.5426 28 29.3334C28 27.1242 29.7908 25.3334 32 25.3334C34.2092 25.3334 36 27.1242 36 29.3334Z" stroke="#F25323" stroke-width="2" stroke-linecap="round" stroke-linejoin="round"/>
<path d="M23.3333 42.0002L24.0805 40.6926C25.2674 38.6155 27.4764 37.3335 29.8688 37.3335H34.1311C36.5235 37.3335 38.7324 38.6155 39.9193 40.6926L40.6665 42.0002" stroke="#F25323" stroke-width="2" stroke-linecap="round" stroke-linejoin="round"/>
<path d="M41.2983 18.6953C41.306 18.6571 41.3607 18.6571 41.3684 18.6953C41.7736 20.6774 43.3225 22.2264 45.3047 22.6315C45.3429 22.6393 45.3429 22.6939 45.3047 22.7017C43.3225 23.1068 41.7736 24.6559 41.3684 26.638C41.3607 26.6762 41.306 26.6762 41.2983 26.638C40.8931 24.6559 39.3441 23.1068 37.362 22.7017C37.3237 22.6939 37.3237 22.6393 37.362 22.6315C39.3441 22.2264 40.8931 20.6774 41.2983 18.6953Z" fill="#F25323" stroke="#F25323" stroke-width="2" stroke-linecap="round" stroke-linejoin="round"/>
</svg>
