<svg width="16" height="16" viewBox="0 0 16 16" fill="none" xmlns="http://www.w3.org/2000/svg">
<g clip-path="url(#clip0_566_283)">
<path d="M1.6665 8.01009C1.6665 5.02453 1.6665 3.53175 2.594 2.60425C3.5215 1.67676 5.01428 1.67676 7.99984 1.67676C10.9854 1.67676 12.4782 1.67676 13.4057 2.60425C14.3332 3.53175 14.3332 5.02453 14.3332 8.01009C14.3332 10.9956 14.3332 12.4884 13.4057 13.416C12.4782 14.3434 10.9854 14.3434 7.99984 14.3434C5.01428 14.3434 3.5215 14.3434 2.594 13.416C1.6665 12.4884 1.6665 10.9956 1.6665 8.01009Z" stroke="white" stroke-width="1.5" stroke-linejoin="round"/>
<path d="M11.2842 5.36035H9.32092C8.62506 5.36035 8.05946 5.92175 8.05433 6.61763L7.99746 14.294M6.72119 9.3439H9.92299" stroke="white" stroke-width="1.5" stroke-linecap="round" stroke-linejoin="round"/>
</g>
<defs>
<clipPath id="clip0_566_283">
<rect width="16" height="16" fill="white" transform="translate(0 0.00976562)"/>
</clipPath>
</defs>
</svg>
